<?xml version="1.0" encoding="utf-8"?>
<!-- Generator: Adobe Illustrator 21.0.1, SVG Export Plug-In . SVG Version: 6.00 Build 0)  -->
<svg version="1.1" id="Layer_1" xmlns="http://www.w3.org/2000/svg" xmlns:xlink="http://www.w3.org/1999/xlink" x="0px" y="0px"
	 viewBox="0 0 586.5 270.776" style="enable-background:new 0 0 586.5 270.776;" xml:space="preserve">
<style type="text/css">
	.st0{fill:#01C6DF;}
</style>
<path class="st0" d="M87,71.276H28.667c0,0-5.667-0.5-12.667,6.5S9.5,94.109,9.5,94.109v76.667c0,0-0.5,5-1.5,7s-8,4.5-8,4.5h62
	c0,0,7,0.5,12-4.5s5.306-12.667,5.306-12.667s-0.579-67.703,0.524-81.333c0.087-1.075,0.17-5,2.17-8S86.861,71.276,87,71.276z"/>
<path class="st0" d="M146,71.776H98c-6.6,0-12,5.4-12,12v172c0,0,1,15,17.319,15s17.681-16,17.681-16l0.333-73H146
	c6.6,0,12-5.4,12-12v-86C158,77.176,152.6,71.776,146,71.776z M153,138.776c0,6.6-5.4,12-12,12h-7c-6.6,0-12-5.4-12-12v-50
	c0-6.6,5.4-12,12-12h7c6.6,0,12,5.4,12,12V138.776z"/>
<path class="st0" d="M225,71.776h-48c-6.6,0-12,5.4-12,12v86c0,6.6,5.4,12,12,12h48c6.6,0,12-5.4,12-12v-86
	C237,77.176,231.6,71.776,225,71.776z M232.218,138.776c0,6.6-5.4,12-12,12H214c-6.6,0-12-5.4-12-12v-50c0-6.6,5.4-12,12-12h6.218
	c6.6,0,12,5.4,12,12V138.776z"/>
<path class="st0" d="M308,7.539v166.237c0,0-1,9,5,16s13.247,10,23.319,10c19.681,0,21.681-13,21.681-13s-3,0-9-4c-8-6-6-20-6-20
	V22.918c0-3.132-1.827-5.977-4.676-7.279L313.241,4.172C310.789,3.051,308,4.843,308,7.539z"/>
<path class="st0" d="M404.927,156.54c-9.327,0-7.255-18.164-7.255-18.164l14.911,0.279c6.609,0.124,12.035-5.059,12.035-11.495
	V83.885c0-6.66-5.596-12.109-12.436-12.109h-49.745c-6.84,0-12.436,5.449-12.436,12.109v86.782c0,6.66,5.596,12.109,12.436,12.109
	h39.382c2.892,0,10.364,0,16.582-4.036c6.218-4.036,6.218-33.3,6.218-33.3h-5.182C419.436,145.44,414.255,156.54,404.927,156.54z
	 M419.663,107.094c0,6.66-2.487,12.109-9.327,12.109H407c-6.84,0-9.327-5.449-9.327-12.109V88.931
	c0-6.66,5.596-12.109,12.436-12.109h-2.883c6.84,0,12.436,5.449,12.436,12.109V107.094z"/>
<path class="st0" d="M509.5,71.776h-58.333c0,0-5.667-0.5-12.667,6.5S432,94.609,432,94.609v76.667c0,0-0.5,5-1.5,7s-8,4.5-8,4.5h62
	c0,0,7,0.5,12-4.5s5.306-12.667,5.306-12.667s-0.579-67.703,0.524-81.333c0.087-1.075,0.17-5,2.17-8S509.361,71.776,509.5,71.776z"
	/>
<path class="st0" d="M586.5,71.776h-58.333c0,0-5.667-0.5-12.667,6.5S509,94.609,509,94.609v76.667c0,0-0.5,5-1.5,7s-8,4.5-8,4.5h62
	c0,0,7,0.5,12-4.5s5.306-12.667,5.306-12.667s-0.579-67.703,0.524-81.333c0.087-1.075,0.17-5,2.17-8S586.361,71.776,586.5,71.776z"
	/>
<path class="st0" d="M251,23.578v49.198l-3.625,0c-1.864,0-3.375,1.511-3.375,3.375v46.25c0,1.864,1.511,3.375,3.375,3.375H251v67
	c0,0,6,32,39,31c25-2,36-18,36-18s-9,1-16-3c-15-8-15-28-15-28v-49h2.689c1.839,0,3.339-1.472,3.374-3.31l0.87-45.25
	c0.036-1.889-1.485-3.44-3.374-3.44l-3.56,0V4.726c0-3.582-3.834-5.859-6.979-4.143L253.46,19.434
	C251.943,20.261,251,21.851,251,23.578z"/>
</svg>
