<?xml version="1.0" encoding="utf-8"?>
<!-- Generator: Adobe Illustrator 21.0.1, SVG Export Plug-In . SVG Version: 6.00 Build 0)  -->
<svg version="1.1" id="Layer_1" xmlns="http://www.w3.org/2000/svg" xmlns:xlink="http://www.w3.org/1999/xlink" x="0px" y="0px"
	 viewBox="0 0 409.697 584.597" style="enable-background:new 0 0 409.697 584.597;" xml:space="preserve">
<style type="text/css">
	.st0{fill:#BCFEEE;}
	.st1{fill:#C0DBD9;}
	.st2{fill:#597895;}
	.st3{fill:#557792;}
	.st4{fill:#3E778D;}
	.st5{fill:#9FFEE7;}
	.st6{fill:#527792;}
	.st7{fill:#42778E;}
	.st8{fill:#44778E;}
	.st9{fill:#507791;}
	.st10{fill:#4F7791;}
	.st11{fill:#48778F;}
	.st12{fill:#4C7790;}
	.st13{fill:#45778F;}
	.st14{fill:#4B7790;}
	.st15{fill:#B8FEED;}
	.st16{fill:#A4C0C6;}
	.st17{fill:#59E1B1;}
	.st18{fill:#4FD4AF;}
	.st19{fill:#4CD3B3;}
	.st20{fill:#5BE4B2;}
	.st21{fill:#48D2BA;}
	.st22{fill:#52D7AF;}
	.st23{fill:#4AD2B6;}
	.st24{fill:#56DEB1;}
	.st25{fill:#45D1BE;}
	.st26{fill:#5FEAB3;}
	.st27{fill:#41D0C4;}
	.st28{fill:#3FD0C8;}
	.st29{fill:#55DBB0;}
	.st30{fill:#43D0C1;}
	.st31{fill:#53DAB0;}
	.st32{fill:#5BE5B2;}
	.st33{fill:#5DE7B3;}
	.st34{fill:#05BBC9;}
	.st35{fill:#0DBFCE;}
	.st36{fill:#09BDCB;}
	.st37{fill:#0ABCC9;}
	.st38{fill:#10C1D1;}
	.st39{fill:#0EBECA;}
	.st40{fill:#28C7CD;}
	.st41{fill:#1CC3CC;}
	.st42{fill:#23C6CD;}
	.st43{fill:#2DC9CE;}
	.st44{fill:#20C5CC;}
	.st45{fill:#18C1CB;}
	.st46{fill:#14C3D4;}
	.st47{fill:#17C5D7;}
	.st48{fill:#1BC7DA;}
	.st49{fill:#31CBCF;}
	.st50{fill:#15C1CB;}
	.st51{fill:#1FC9DD;}
	.st52{fill:#12BFCA;}
	.st53{fill:#17C5D6;}
	.st54{fill:#12C2D2;}
	.st55{fill:#13C2D3;}
	.st56{fill:#23CBE0;}
	.st57{fill:#27CEE3;}
	.st58{fill:#3BCED0;}
	.st59{fill:#40D0C6;}
	.st60{fill:#42D0C4;}
	.st61{fill:#3CCFCD;}
	.st62{fill:#3FCFC9;}
	.st63{fill:#3ECFCB;}
	.st64{fill:#35CCCF;}
	.st65{fill:#17C1CB;}
	.st66{fill:#1FC4CC;}
	.st67{fill:#3ECFCA;}
	.st68{fill:#23C5CD;}
	.st69{fill:#30CACF;}
	.st70{fill:#48D2B9;}
	.st71{fill:#45D1BF;}
	.st72{fill:#4AD2B7;}
	.st73{fill:#46D1BC;}
	.st74{fill:#54DAB0;}
	.st75{fill:#54DBB0;}
	.st76{fill:#0DBECA;}
	.st77{fill:#FEFEFE;}
</style>
<g>
	<path class="st0" d="M409.01,216.957c-0.484,0.857-0.964,1.728-2.205,1.282c-1.866-2.269-1.335-5.011-1.496-7.618
		c-0.531-8.581,1.021-17.192-0.398-25.752c-0.429-4.859-1.437-9.668-1.453-14.57c0.131-1.833,0.22-3.67-0.053-5.505
		c0-0.534,0.159-1.018,0.472-1.452"/>
	<path class="st0" d="M409.697,200.039"/>
	<path class="st1" d="M207.133,542.267c27.257,0.131,54.381,1.66,80.998,8.098c5.803,1.404,11.624,2.997,16.846,6.015
		c7.232,4.18,7.287,9.697,0.033,13.845c-7.892,4.513-16.725,6.32-25.532,8.074c-32.479,6.465-65.383,6.978-98.248,5.794
		c-23.977-0.864-48.013-2.795-71.064-10.584c-3.5-1.182-6.766-2.775-9.746-4.952c-4.466-3.264-4.519-7.22-0.04-10.43
		c8.071-5.785,17.593-7.852,27.013-9.673c22.687-4.385,45.664-6.108,68.763-6.118c2.31-0.001,3.972-0.368,3.924-3.121
		c2.214,0.339,2.154,2.217,2.386,3.748c0.831,5.492,1.555,10.999,1.528,16.477c0.011-0.485,0-0.875,0.004-1.289
		c-0.216-3.821-0.23-7.603,0.567-11.351C204.946,545.008,205.247,543.195,207.133,542.267z"/>
	<path class="st2" d="M203.098,561.127c-0.52-7.371-1.442-14.687-3.019-21.913c-0.062-1.701-0.116-3.405-1.103-4.898
		c-0.681-4-1.361-7.999-2.042-11.999c4.64,2.142,9.284,1.926,13.93,0.022c-0.349,2.31-0.697,4.62-1.046,6.929
		c-1.412,4.226-2.122,8.597-2.685,12.998c-1.382,5.557-2.166,11.194-2.236,16.925C204.09,559.644,205.167,561.848,203.098,561.127z"
		/>
	<path class="st3" d="M210.864,522.34c-3.711,4.29-10.728,4.279-13.93-0.022c-3.942-11.918-7.227-24.064-12.282-35.598
		c-5.847-13.338-11.894-26.571-20.457-38.466c-6.988-12.729-16.167-23.858-25.746-34.634
		c-10.821-12.172-22.715-23.256-35.742-33.071c-2.099-1.582-4.444-2.838-6.675-4.245c-7.4-5.569-15.548-10.144-22.199-16.708
		c1.289-3.167,4.173-2.815,6.726-2.894c8.734-0.269,17.48,0.24,26.207-0.324c2.655-0.464,4.874,0.731,7.103,1.878
		c4.181,2.898,8.812,4.972,13.375,7.17c2.835,1.698,5.982,2.702,8.995,4.005c2.474,1.365,5.182,2.121,7.847,2.99
		c1.582,0.575,3.165,1.142,4.792,1.586c3.817,1.275,7.687,2.358,11.601,3.296c5.183,1.228,10.409,2.21,15.68,2.963
		c5.154,0.811,10.303,1.636,15.541,1.62c1.383-0.028,2.76,0.022,4.113,0.339c2.342,0.823,4.761,0.757,7.189,0.597
		c0.828-0.085,1.654-0.076,2.48,0.02c6.121-0.553,12.235-1.151,18.358-1.632c6.531-0.846,13.075-1.61,19.509-3.059
		c4.814-0.958,9.507-2.377,14.188-3.833c3.897-1.606,8.067-2.414,11.937-4.096c5.223-1.775,10.196-4.119,15.07-6.681
		c3.82-1.681,7.486-3.642,10.882-6.084c3.53-2.538,7.644-4.115,11.1-6.774c3.313-2.268,6.623-4.54,9.524-7.346
		c2.069-1.818,3.915-3.979,6.84-4.498c8.991,1.746,18.057,0.469,27.087,0.624c1.763,0.03,2.862-1.47,4.144-2.501
		c1.203-0.968,2.212-2.659,4.211-1.578c-4.244,6.441-10.495,11.058-15.376,16.92c-9.871,8.636-20.274,16.58-31.122,23.946
		c-9.39,5.127-17.14,12.373-24.908,19.545c-12.304,11.361-23.838,23.439-33.19,37.433c-9.629,11.753-17.019,24.913-23.781,38.422
		c-7.673,15.329-13.787,31.279-17.998,47.927C211.715,520.529,211.233,521.42,210.864,522.34z"/>
	<path class="st4" d="M82.958,40.16c6.917-5.622,14.097-10.858,22.035-14.978c16.876-8.631,34.27-15.881,52.812-20.177
		c2.052-0.476,4.389-0.066,6.165-1.623c1.865-1.363,4.212,0.189,6.103-1.011L170.01,2.41c1.909-1.399,4.289,0.12,6.241-1.007
		c0.93-0.078,1.859-0.157,2.788-0.235c1.646-0.825,3.564,0.174,5.192-0.772c0.921-0.05,1.841-0.1,2.762-0.149
		c18.76-0.656,37.454-0.13,56,3.096c8.093,2.208,16.252,4.198,24.263,6.671c15.452,4.77,29.794,12.038,43.747,20.114
		c4.03,2.912,8.06,5.824,12.091,8.737c0.454,1.491,3.093,1.988,2.076,4.064c-0.947,1.933-3.01,1.872-4.795,1.93
		c-6.958,0.226-13.92,0.013-20.879,0.126c-2.157,0.035-4.303,0.228-6.384,0.841c-2.322,0.784-4.301-0.101-6.218-1.279
		c-2.763-1.903-5.769-3.324-8.95-4.389c-2.088-0.985-4.275-1.752-6.34-2.79c-1.807-0.959-3.889-1.186-5.713-2.101
		c-1.63-0.725-3.328-1.288-4.957-2.018c-1.016-0.456-2.072-0.803-3.134-1.138c-1.088-0.377-2.202-0.663-3.309-0.977
		c-2.604-0.638-5.267-1.021-7.827-1.844c-2.953-0.96-6.008-1.454-9.053-2.001c-5.387-1.238-10.955-1.189-16.355-2.32
		c-6.048,0.301-11.971-1.352-18.012-1.098c-3.698-0.317-7.31,0.524-10.958,0.841c-2.987,0.342-6.03-0.165-8.989,0.598
		c-1.566,0.347-3.154,0.477-4.753,0.459c-1.545,0.052-2.983,0.705-4.514,0.839c-2.486,0.228-4.897,0.922-7.373,1.21
		c-1.884,0.546-3.819,0.887-5.697,1.456c-2.599,0.605-5.196,1.219-7.753,1.985c-2.319,0.622-4.577,1.437-6.847,2.211
		c-2.71,0.846-5.434,1.649-8.048,2.772c-2.975,1.398-6.098,2.455-9.041,3.93c-2.859,1.3-5.649,2.736-8.407,4.247
		c-2.22,1.055-4.409,2.277-7.005,1.288c-7.852-1.473-15.778-0.438-23.661-0.744c-2.135-0.083-4.316,0.176-6.373-0.537
		C81.247,43.534,80.79,42.082,82.958,40.16z"/>
	<path class="st5" d="M176.252,1.404c-1.931,1.262-4.121,0.916-6.241,1.006C171.829,0.451,174.15,1.609,176.252,1.404z"/>
	<path class="st5" d="M170.074,2.371c-1.881,1.263-4.013,1.007-6.103,1.011C165.75,1.505,168.02,2.593,170.074,2.371z"/>
	<path class="st5" d="M184.232,0.397c-1.613,1.047-3.409,0.868-5.192,0.772C180.596-0.265,182.477,0.486,184.232,0.397z"/>
	<path class="st6" d="M108.088,357.281c-6.457,2.15-13.118,0.474-19.656,1.054c-4.866,0.431-9.917-1.26-14.6,1.262
		c0,0.001,0.069-0.074,0.069-0.074c-1.156-1.274-2.531-2.273-3.982-3.179c-3.531-2.293-6.206-5.491-9.025-8.536
		c-1.284-1.604-2.797-2.984-4.282-4.392c-8.004-7.048-13.694-16.061-20.486-24.138c-2.102-3.644-4.203-7.289-6.305-10.933
		c2.398-1.916,5.276-1.395,8.005-1.532c5.375-0.271,10.8,0.53,16.121-0.771c3.438-0.504,4.47,2.438,5.993,4.421
		c10.789,14.046,22.98,26.687,37.062,37.467c2.511,1.922,5.255,3.514,7.788,5.399C106.177,354.357,108.205,354.958,108.088,357.281z
		"/>
	<path class="st3" d="M69.92,356.343c2.1,0.09,3.312,1.293,3.982,3.178C72.175,358.963,71.02,357.688,69.92,356.343z"/>
	<path class="st7" d="M291.998,45.231c1.757-1.927,4.067-1.937,6.423-1.927c7.295,0.031,14.599-0.205,21.882,0.093
		c4.307,0.176,4.899-1.143,2.792-4.531c8.459,5.165,15.351,12.257,22.849,18.604c6.016,7.021,12.032,14.041,18.048,21.062
		c1.332,1.927,1.843,4.474,4.226,5.61l0.03-0.044c-0.279,3.78-3.264,3.546-5.774,3.723c-5.691,0.401-11.45-0.477-17.085,0.899
		c-2.261,0.517-3.757-0.68-5.123-2.262c-9.458-10.953-20.231-20.476-31.776-29.15c-4.014-3.078-8.399-5.578-12.746-8.139
		C294.217,48.122,292.322,47.419,291.998,45.231z"/>
	<path class="st7" d="M82.958,40.16c-1.481,3.169,0.552,3.176,2.775,3.167c7.942-0.032,15.884-0.02,23.826-0.006
		c2.119,0.004,4.432-0.411,5.508,2.215c0.271,1.041-0.257,1.76-0.964,2.409c-2.224,1.444-4.735,2.412-6.829,4.082
		c-2.603,1.629-5.182,3.294-7.657,5.116c-2.29,1.717-4.584,3.427-6.865,5.154c-2.516,1.728-4.492,4.124-7.074,5.769
		c-1.87,1.475-3.452,3.25-5.118,4.937c-2.361,2.291-4.676,4.628-6.967,6.99c-2.275,2.207-4.609,4.359-6.269,7.116
		c-1.749,2.013-3.485,4.048-6.532,3.88c-6.132-0.102-12.263,0.118-18.382-0.163c-2.349-0.108-5.245,0.097-5.436-3.549
		c2.008-2.984,4.016-5.967,6.024-8.951c7.766-9.55,16.548-18.161,24.994-27.084C73.511,48.264,77.286,42.931,82.958,40.16z"/>
	<path class="st8" d="M343.964,88.421c1.482-1.936,3.582-2.128,5.793-2.113c4.466,0.03,8.934-0.03,13.4,0.025
		c2.074,0.026,4-0.097,5.091-2.233c0.265-0.007,0.527,0.005,0.789,0.034c5.565,8.569,11.194,17.1,15.967,26.153
		c3.817,6.891,5.828,14.543,9.117,21.656c1.921,6.689,1.151,7.734-5.859,7.942c-4.478,0.132-8.992-0.346-13.403,0.816
		c-2.818,0.267-3.454-1.959-4.307-3.864c-0.866-1.933-1.638-3.909-2.411-5.877c-2.003-4.871-4.437-9.53-7.073-14.087
		c-5.175-8.228-9.665-16.902-15.986-24.385C344.13,91.362,343.306,90.057,343.964,88.421z"/>
	<path class="st8" d="M368.218,84.143c-3.732-0.12-3.868-2.949-4.226-5.611C366.058,79.908,367.273,81.924,368.218,84.143z"/>
	<path class="st9" d="M358.331,335.384c-5.313,6.319-12.472,5.742-19.659,5.439c-3.577-0.15-7.179,0.304-10.77,0.478
		c-1.915,0.092-3.576-0.488-4.906-1.908c0.057-1.245,0.884-2.057,1.63-2.918c1.906-1.95,3.854-3.859,5.733-5.835
		c2.32-2.148,3.729-5.122,6.328-7.021c3.029-2.442,5.144-5.675,7.519-8.68c1.84-1.835,3.534-3.796,4.993-5.953
		c1.097-1.245,2.047-2.6,2.949-3.991c0.445-0.691,0.88-1.39,1.323-2.084c0.709-1.028,1.391-2.074,2.017-3.157
		c1.134-1.585,1.691-3.498,2.865-5.059c2.251-2.507,3.071-5.792,4.689-8.642c0.847-1.265,1.542-2.614,2.192-3.988
		c0.711-1.357,1.386-2.73,1.961-4.152c0.717-1.67,1.245-3.415,2.044-5.052c1.627-2.937,2.833-6.039,3.69-9.286
		c1.296-2.809,1.125-6.514,4.795-7.881c7.44,0.419,14.925-0.769,22.337,0.628c-0.361,5.603-3.244,10.505-4.418,15.883
		c-3.944,9.019-7.888,18.039-11.832,27.058c-5.298,8.343-10.597,16.686-15.895,25.03
		C364.357,327.674,362.231,332.296,358.331,335.384z"/>
	<path class="st10" d="M55.004,306.284c-0.721,1.535-1.993,2.035-3.61,2.033c-7.191-0.009-14.382,0.014-21.573,0.026
		c-4.02-4.876-6.081-10.896-9.44-16.158c-3.409-8.304-6.818-16.607-10.228-24.911c-0.842-3.287-1.683-6.574-2.525-9.862
		c1.609-1.897,3.864-1.695,5.976-1.71c5.46-0.041,10.921-0.154,16.379-0.059c2.721,0.528,3.275,2.854,4.111,4.947
		c1.344,5.344,3.741,10.297,5.837,15.362c3.877,8.43,8.034,16.707,13.077,24.521C54.129,302.208,55.897,303.818,55.004,306.284z"/>
	<path class="st11" d="M373.924,140.476c0.871-2.038,2.619-2.194,4.507-2.17c3.111,0.04,6.223,0.011,9.335,0.01
		c6.796-0.004,6.796-0.004,6.354-6.371c0.915,1.883,1.829,3.768,2.743,5.653c2.338,8.582,4.676,17.163,7.014,25.743
		c0.048,0.328,0.096,0.655,0.143,0.983c1.097,1.59-0.14,3.588,0.908,5.186c0.389,4.831,0.777,9.662,1.166,14.494
		c1.368,10.657,1.133,10.892-9.406,10.979c-3.738,0.031-7.595-0.603-11.075,1.468c-0.579,0.238-1.162,0.239-1.745,0.016
		c-1.517-1.692-1.347-3.791-1.412-5.834c0.259-2.999-0.062-5.961-0.636-8.903c-0.078-2.356-0.968-4.582-1.15-6.921
		c-0.135-1.707,0.038-3.451-0.585-5.105c-0.178-0.454-0.312-0.92-0.433-1.39c-0.835-2.52-0.898-5.192-1.535-7.75
		c-0.328-1.347-0.585-2.712-0.959-4.049c-0.349-1.303-0.495-2.66-1.053-3.908c-0.357-0.849-0.722-1.692-1.062-2.549
		c-0.7-2.537-2.008-4.91-2.055-7.625C373.058,141.666,373.319,140.988,373.924,140.476z"/>
	<path class="st12" d="M30.883,256.318c-5.484,2.113-11.186,0.53-16.771,0.975c-2.15,0.171-4.32,0.087-6.482,0.12
		c-2.514-6.132-2.546-12.871-4.679-19.096C1.508,226.355,0.53,214.354,0,202.316c0.034-1.925,0.069-3.851,0.104-5.775
		c0.239-0.191,0.493-0.36,0.762-0.506c1.792,5.401,5.887,6.043,10.871,5.752c3.726-0.218,7.641-0.846,11.233,1.066
		c2.283,2.41,1.172,5.676,2.14,8.419c0.666,6.527,0.573,13.128,1.865,19.594c0.52,2.93,0.954,5.877,1.369,8.825
		c0.05,1.023,0.198,2.044,0.19,3.071c0.858,4.103,2.233,8.085,2.942,12.228C31.472,255.519,31.272,255.961,30.883,256.318z"/>
	<path class="st13" d="M36.975,87.278c1.058,2.298,3.135,2.039,5.111,2.039c5.111-0.002,10.223-0.033,15.334,0.019
		c1.589,0.016,3.35-0.489,4.607,1.061c1.007,1.144,0.37,2.176-0.205,3.216c-1.692,2.325-3.531,4.547-5.118,6.953
		c-1.024,1.399-2.006,2.828-2.928,4.298c-1.098,1.632-1.928,3.424-3.005,5.068c-1.666,2.874-3.562,5.615-4.962,8.642
		c-1.097,1.98-2.066,4.025-3.025,6.075c-1.124,2.079-2.165,4.196-3.012,6.411c-2.066,3.845-2.087,8.971-6.937,11.079
		c-5.585-0.089-11.167-0.086-16.743-0.297c-3.593-0.136-5.729-1.559-4.128-5.617c1.403-4.183,2.806-8.366,4.209-12.548
		c3.275-6.783,6.55-13.566,9.825-20.35C29.656,97.977,33.315,92.627,36.975,87.278z"/>
	<path class="st11" d="M11.962,136.225c-0.398,3.302,1.186,4.144,4.316,4.17c5.884,0.048,11.848-0.907,17.645,0.92
		c0.647,0.577,0.814,1.325,0.774,2.148c-1.784,6.465-4.003,12.814-5.326,19.41c-1.271,5.119-1.994,10.339-2.919,15.522
		c-0.023,2.166-0.468,4.269-0.912,6.372c-0.182,2.701,0.094,5.406-0.064,8.106c-0.109,1.063-0.169,2.135-0.42,3.179
		c-0.798,1.955-0.506,4.123-1.159,6.11c-0.218,0.497-0.564,0.879-1.032,1.152c-4.776,0.001-9.551,0.002-14.327,0.001
		c-7.353,0-7.353-0.001-7.673-7.28c-0.234-12.593,1.645-24.934,4.379-37.178c0.392-1.756,0.565-3.56,0.84-5.341
		C8.045,147.753,10.004,141.989,11.962,136.225z"/>
	<path class="st14" d="M384.932,196.459c-0.139-2.721,1.459-3.229,3.77-3.169c3.937,0.102,7.902-0.245,11.811,0.099
		c4.295,0.378,6.182-1.014,5.516-5.449c-0.192-1.279,0.031-2.62,0.064-3.934c1.822,7.535,0.951,15.21,1.139,22.828
		c0.095,3.825-0.054,7.657-0.093,11.486c-1.079,8.324-2.159,16.649-3.238,24.973c-1.28,4.343-2.56,8.686-3.84,13.029
		c-7.652,1.591-15.304,1.6-22.955,0c-0.678-0.488-0.918-1.19-0.976-1.983c0.42-3.218,1.65-6.233,2.373-9.377
		c0.248-1.467,0.623-2.903,1.009-4.338c0.119-2.046,0.898-3.974,1.047-6.016c0.266-3.211,1.037-6.363,1.044-9.602
		c0.799-6.715,1.263-13.459,1.924-20.186c-0.068-0.574-0.072-1.147-0.024-1.721C383.78,200.841,383.094,198.377,384.932,196.459z"/>
	<path class="st15" d="M404.927,169.51c-1.054-1.597-0.962-3.395-0.908-5.186C405.632,165.824,404.807,167.75,404.927,169.51z"/>
	<path class="st16" d="M203.098,561.127c0.6-0.645,1.2-1.289,1.799-1.934c-0.001,1.835,0.651,3.75-0.775,5.746
		C202.547,563.877,203.087,562.416,203.098,561.127z"/>
	<path class="st17" d="M25.927,231.462c-2.117-6.538-2.043-13.295-2.004-20.048c1.919-1.984,2.038-2.02,4.582,0.158
		c4.949,4.237,8.808,9.494,13.15,14.293c10.356,11.448,20.598,23,30.824,34.566c11.985,13.556,24.292,26.825,36.147,40.499
		c8.319,10.334,17.404,19.996,26.219,29.894c13.335,14.973,26.918,29.726,39.907,45.003c1.204,1.417,4.081,2.985,1.211,5.516
		c-5.521,0.057-10.809-1.132-15.971-2.99c-7.447-7.571-14.459-15.538-21.47-23.508c-7.021-7.981-14.092-15.92-21.203-23.819
		c-15.671-17.407-31.105-35.026-46.799-52.41c-13.024-14.427-25.759-29.113-38.968-43.373
		C30.009,233.577,28.567,231.576,25.927,231.462z"/>
	<path class="st18" d="M243.982,379.268c-6.491,2.073-13.191,2.819-19.957,3.154c-8.681-9.379-17.115-18.982-25.61-28.527
		c-10.724-12.049-21.418-24.124-32.276-36.052c-2.689-2.954-5.19-6.067-7.775-9.105c-1.541-1.81-3.463-4.043-0.344-6.32
		c6.672-1.193,13.293-1.097,19.843,0.736c5.051,4.539,9.323,9.844,13.86,14.864c16.485,18.238,32.485,36.913,49.212,54.938
		C242.559,374.708,244.891,376.241,243.982,379.268z"/>
	<path class="st19" d="M243.982,379.268c-0.668-1.145-1.102-2.552-2.041-3.395c-8.191-7.357-14.652-16.278-22.085-24.32
		c-12.83-13.88-24.916-28.437-38.014-42.085c-1.297-1.351-2.689-2.992-2.846-5.137c6.27-2.967,12.715-1.75,19.142-0.807
		c8.803,13.514,20.659,24.464,31.144,36.562c8.892,10.259,17.951,20.391,27.096,30.436c1.192,1.309,2.539,2.741,1.643,4.84
		C253.51,377.274,248.858,378.675,243.982,379.268z"/>
	<path class="st20" d="M25.927,231.462c0.769-3.361,2.257-1.465,3.326-0.337c5.138,5.424,10.272,10.855,15.258,16.418
		c6.856,7.651,13.491,15.501,20.373,23.128c15.77,17.477,31.445,35.036,47.01,52.699c7.338,8.328,14.793,16.597,22.34,24.762
		c7.874,8.519,15.447,17.318,23.089,26.05c1.075,1.228,1.788,2.772,2.669,4.17c-4.175-0.378-8.04-1.938-11.996-3.15
		c-5.798-6.609-11.423-13.379-17.368-19.849c-10.666-11.606-20.895-23.599-31.5-35.248c-6.818-7.489-13.359-15.22-20.25-22.643
		c-10.045-10.82-19.463-22.224-29.541-32.995c-7.474-7.988-13.836-17.003-22.211-24.15C26.536,237.39,25.627,234.508,25.927,231.462
		z"/>
	<path class="st21" d="M285.139,364.403c-4.667,3.134-9.802,5.24-15.145,6.888c-6.641-6.755-12.766-13.981-19.115-21.002
		c-10.261-11.347-20.323-22.874-30.549-34.253c-0.445-0.495-0.991-0.914-1.358-1.461c-1.689-2.518-5.466-4.612-3.954-7.941
		c1.305-2.872,5.128-1.28,7.816-1.794c3.393,0.065,6.804-0.35,10.164,0.404c6.393,4.855,10.902,11.517,16.182,17.404
		c9.858,10.99,19.842,21.876,29.521,33.029C281.076,358.416,283.823,360.882,285.139,364.403z"/>
	<path class="st22" d="M157.029,303.265c0.852,5.59,5.661,8.499,8.912,12.232c15.214,17.47,31.136,34.324,46.296,51.838
		c4.137,4.779,9.901,8.49,11.788,15.087c-6.243,1.437-12.644,1.16-18.964,1.754c2.267-2.414,2.302-4.314-0.178-7.052
		c-10.605-11.708-21.124-23.497-31.708-35.226c-9.694-10.742-18.93-21.894-29.016-32.292c-1.944-2.004-5.287-4.131-2.742-7.956
		c1.503-0.734,3.063-0.636,4.641-0.36c3.347,1.336,7.077-0.179,10.393,1.387C156.644,302.871,156.836,303.068,157.029,303.265z"/>
	<path class="st23" d="M222.189,306.232c-2.183,0.559-5.46-1.179-6.404,1.048c-0.814,1.918,1.96,3.949,3.412,5.587
		c9.685,10.927,19.56,21.685,29.356,32.513c6.122,6.766,12.269,13.511,18.276,20.378c1.38,1.577,2.875,3.256,3.165,5.533
		c-3.697,2.223-7.991,2.688-11.974,4.07c-2.531-4.949-6.673-8.625-10.262-12.705c-13.454-15.293-27.076-30.438-40.627-45.645
		c-2.644-2.968-5.249-5.971-7.879-8.951c-0.827-0.936-1.576-1.852-0.06-2.828c7.086-2.983,14.335-1.743,21.56-0.782
		C221.592,304.562,222.082,305.335,222.189,306.232z"/>
	<path class="st24" d="M175.961,381.341c0.118-4.52-3.678-6.728-6.101-9.484c-16.858-19.18-33.986-38.122-51.001-57.165
		c-3.829-4.286-8.182-8.155-10.872-13.37c0.188-0.196,0.377-0.392,0.563-0.592c1.732-1.028,3.682-0.672,5.544-0.882
		c2.085,0.008,4.183-0.091,6.219,0.515c1.849,0.657,2.739,2.345,3.942,3.699c17.783,19.994,35.196,40.317,53.533,59.818
		c4.55,4.838,8.377,10.331,13.061,15.079c1.103,1.118,2.502,2.426,1.143,4.319C186.54,383.535,181.185,382.983,175.961,381.341z"/>
	<path class="st25" d="M285.139,364.403c-6.506-7.025-13.088-13.981-19.496-21.094c-7.191-7.983-14.164-16.163-21.352-24.149
		c-3.652-4.058-7.379-8.031-10.295-12.677c4.433-2.462,9.251-3.562,14.245-4.04c5.326,2.588,7.994,7.868,11.796,11.957
		c10.76,11.573,21.091,23.543,31.637,35.316c2.197,2.453,5.716,4.446,4.383,8.75C292.76,361.073,289.17,363.143,285.139,364.403z"/>
	<path class="st26" d="M55.004,306.284c-5.063-8.287-10.263-16.498-14.257-25.384c-0.667-1.483-1.188-3.032-1.776-4.551
		c1.985-1.198,2.976-1.158,5.139,1.106c2.75,2.878,5.329,5.924,8.003,8.88c14.142,15.632,27.889,31.618,42.259,47.047
		c5.996,6.438,11.3,13.49,17.485,19.78c1.561,1.588,3.856,3.523,2.061,6.446c-1.944-0.776-3.888-1.552-5.831-2.328
		C86.998,343.816,69.881,326.217,55.004,306.284z"/>
	<path class="st27" d="M316.734,344.299c-2.894,2.779-5.9,5.405-9.613,7.071c-2.697,1.389-3.974-0.737-5.375-2.276
		c-13.671-15.014-26.853-30.464-40.63-45.384c-1.687-1.827-3.406-3.692-3.746-6.344c1.911-3.714,4.83-6.423,8.449-8.433
		c6.442,3.547,10.04,9.956,14.861,15.093c11.657,12.419,22.437,25.644,34.294,37.892
		C315.671,342.638,316.323,343.376,316.734,344.299z"/>
	<path class="st28" d="M316.734,344.299c-3.476-0.936-5.322-3.939-7.474-6.335c-12.509-13.926-24.826-28.024-37.223-42.05
		c-1.976-2.235-4.026-4.404-6.042-6.604c0.134-4.108,2.433-6.781,5.794-8.754c3.137-0.351,4.872,1.919,6.567,3.852
		c9.065,10.342,18.382,20.46,27.407,30.835c6.406,7.364,13.523,14.108,19.237,22.073c-0.668,0.692-1.335,1.383-2.003,2.076
		C320.909,341.028,318.821,342.664,316.734,344.299z"/>
	<path class="st29" d="M191.993,383.277c-1.763-5.066-6.339-7.943-9.592-11.773c-11.439-13.474-23.505-26.416-35.297-39.592
		c-8.043-8.987-16.041-18.015-24.011-27.066c-0.861-0.978-1.405-2.235-2.096-3.363c0.941-1.321,2.31-1.284,3.702-1.18
		c2.224,0.762,4.662,0.38,6.874,1.231c9.203,10.493,18.581,20.839,27.888,31.248c9.873,11.043,19.681,22.144,29.573,33.17
		c3.446,3.841,6.723,7.829,10.275,11.585c1.517,1.604,3.837,3.629,1.112,6.242c-1.513-0.107-3.081,0.404-4.524-0.421
		C194.596,383.33,193.294,383.303,191.993,383.277z"/>
	<path class="st30" d="M257.963,297.208c6.423,9.09,14.523,16.739,21.695,25.188c7.497,8.832,15.345,17.367,23.049,26.024
		c1.21,1.359,2.337,2.873,4.414,2.95c-2.95,3.514-7.591,4.393-11.064,7.094c-2.23-6.789-8.179-10.738-12.497-15.859
		c-11.003-13.047-22.616-25.578-33.97-38.329c-0.321-0.36-0.472-0.871-0.703-1.312C251.051,299.687,254.013,297.669,257.963,297.208
		z"/>
	<path class="st31" d="M200.993,383.305c-1.873-6.606-7.689-10.229-11.79-15.058c-12.745-15.003-26.005-29.568-39.118-44.257
		c-4.303-4.82-8.742-9.518-13.164-14.229c-2.045-2.179-4.094-4.326-4.917-7.314c0.986-1.441,2.554-1.405,4.035-1.596
		c1.822-0.015,3.647-0.033,4.958,1.569c0.817,2.988,2.899,5.104,4.897,7.324c14.389,15.987,28.735,32.012,43.094,48.026
		c5.855,6.529,11.716,13.053,17.557,19.594c4.354,4.875,4.342,4.886-1.486,6.812c-0.703,0.002-1.407,0.004-2.111,0.007
		C202.413,383.631,201.446,384.04,200.993,383.305z"/>
	<path class="st32" d="M30.994,255.318c-2.494-3.612-2.298-8.089-3.859-12.001c2.858-2.021,4.325,0.42,5.779,2.025
		c4.791,5.292,9.566,10.606,14.296,15.947c13.213,14.92,26.642,29.647,39.794,44.62c12.377,14.091,24.955,28.003,37.38,42.05
		c6.375,7.208,12.663,14.521,19.233,21.57c0.957,1.026,3.738,2.396,0.236,3.882c-2.857-0.387-5.55-1.216-7.916-2.929
		c-6.696-8.047-13.773-15.763-20.732-23.577c-13.261-14.891-26.526-29.779-39.867-44.599C61.77,287.238,48.44,271.96,34.841,256.922
		C33.753,255.72,32.699,254.846,30.994,255.318z"/>
	<path class="st33" d="M113.919,359.609c-0.508-3.319-2.829-5.464-4.915-7.815C93.4,334.209,77.37,317.009,62.069,299.146
		c-6.023-7.032-12.655-13.56-18.616-20.685c-0.959-1.146-2.402-2.676-4.482-2.111c-2.671-4.736-4.701-9.724-5.914-15.033
		c2.955-1.542,4.232,1.082,5.744,2.54c8.149,7.854,15.094,16.812,22.748,25.128c9.788,10.635,19.209,21.606,28.859,32.369
		c11.648,12.991,23.303,25.975,34.854,39.051c1.46,1.652,3.429,3.436,1.688,6.098C122.36,364.671,117.755,362.867,113.919,359.609z"
		/>
	<path class="st33" d="M126.951,366.502c-1.348-6.083-6.468-9.475-10.181-13.755c-13.349-15.389-27.024-30.496-40.608-45.681
		c-9.17-10.25-18.38-20.464-27.599-30.671c-3.778-4.183-7.604-8.324-11.455-12.44c-1.115-1.192-2.147-2.614-4.051-2.639
		c-0.724-1.666-1.449-3.332-2.174-4.999c0.037-0.333,0.074-0.666,0.111-0.999c-0.007-2.639,0.894-3.753,3.022-1.422
		c6.247,6.845,12.407,13.771,18.553,20.709c6.799,7.674,13.52,15.418,20.318,23.093c12.942,14.613,25.88,29.23,38.887,43.785
		c7.061,7.901,14.242,15.695,21.413,23.496c1.469,1.598,3.228,2.967,2.747,5.503C132.769,369.542,129.591,368.63,126.951,366.502z"
		/>
	<path class="st32" d="M143.851,373.411c1.476-1.013,0.714-1.916-0.12-2.847c-8.519-9.516-17.058-19.015-25.54-28.564
		c-12.665-14.256-25.203-28.626-37.967-42.792c-6.108-6.779-12.301-13.476-18.314-20.347c-9.616-10.987-19.551-21.694-29.384-32.49
		c-1.438-1.579-2.829-3.393-5.392-3.055c-0.004-1-0.009-2-0.013-3c3.627-0.223,5.42,2.623,7.041,4.91
		c5.602,7.902,12.781,14.378,19.054,21.665c12.768,14.832,25.961,29.299,39.013,43.886c9.737,10.882,19.543,21.702,29.292,32.573
		c8.419,9.389,16.79,18.821,25.217,28.203c0.974,1.084,1.321,2.266,1.255,3.648C146.613,374.604,145.232,374.008,143.851,373.411z"
		/>
	<path class="st22" d="M200.993,383.305c0.652,0.293,1.304,0.587,1.956,0.879c-2.371-0.101-4.849,0.715-7.051-0.828
		C197.596,383.339,199.294,383.322,200.993,383.305z"/>
	<path class="st34" d="M202.958,22.46c6.347,0.323,12.693,0.647,19.04,0.97c8.012,10.215,17.212,19.384,25.737,29.15
		c9.401,10.771,19.213,21.187,28.416,32.135c2.902,3.452,6.41,6.322,9.205,9.835c1.54,1.935,4.042,4.101,0.71,6.708
		c-6.076,1.412-12.025,0.277-17.969-0.866c-4.821-4.979-9.856-9.836-14.166-15.229c-7.691-9.623-16.185-18.538-24.451-27.597
		c-8.056-8.829-15.271-18.445-24.098-26.575c-1.348-1.242-2.433-2.739-3.278-4.375C201.282,25.028,200.784,23.455,202.958,22.46z"/>
	<path class="st35" d="M382.983,181.312c1.523,2.867,0.943,5.954,0.939,8.981c-2.665,0.556-3.886-1.594-5.282-3.065
		c-9.952-10.488-19.461-21.38-28.967-32.269c-6.337-7.259-12.796-14.44-19.29-21.522c-8.87-9.674-16.803-20.22-26.526-29.11
		c-1.843-1.933-4.269-1.387-6.531-1.567c-2.238-0.178-4.703,0.497-6.457-1.621c0.239-2.555,2.368-1.706,3.8-2.089
		c1.186-0.317,2.961,0.57,3.413-1.166c0.31-1.194-0.951-2.058-1.775-2.843c-5.555-5.298-10.268-11.334-15.317-17.081
		c-6.031-6.864-12.164-13.687-18.429-20.309c-7.897-8.347-14.565-17.78-23.069-25.555c-1.348-1.232-2.563-2.674-2.718-4.636
		c-0.067-0.852,0.052-1.731,1.332-1.224c3.127-0.042,6.106,0.611,8.95,1.901c6.905,7.861,13.81,15.732,20.627,23.656
		c6.618,7.693,13.688,14.978,20.426,22.541c8.613,9.668,17.305,19.325,25.891,29.015c7.262,8.196,15.178,15.851,21.773,24.644
		c1.199,1.598,2.487,3.143,3.899,4.549c14.262,14.207,26.377,30.36,40.55,44.644C381.432,178.406,382.045,179.951,382.983,181.312z"
		/>
	<path class="st36" d="M238.107,26.236c-1.126,2.449,0.964,3.504,2.189,4.852c16.13,17.751,32.329,35.437,47.833,53.747
		c3.21,3.791,7.003,7.087,10.494,10.644c1.047,1.066,2.327,2.4,1.779,3.855c-0.663,1.759-2.616,0.828-4.004,0.938
		c-1.817,0.144-3.652,0.061-5.479,0.075c-1.335,1.171-2.642,1.115-3.925-0.087c-0.31-2.87-2.343-4.623-4.123-6.609
		c-13.588-15.155-27.112-30.368-40.674-45.547c-6.066-6.79-12.151-13.563-18.277-20.299c-1.166-1.282-2.133-2.543-1.923-4.377
		C227.25,25.042,232.988,23.864,238.107,26.236z"/>
	<path class="st37" d="M202.958,22.46c-1.837,3.259,1.024,5.025,2.582,6.758c13.962,15.527,28.251,30.763,42.102,46.387
		c5.716,6.448,11.019,13.255,17.281,19.218c1.21,1.152,1.894,2.718,2.073,4.437c-2.04,2.06-4.528,1.483-6.966,1.197
		c-1.994-0.504-3.652-1.583-5.024-3.099c-12.061-13.331-23.853-26.908-35.978-40.171c-7.974-8.722-15.359-17.976-23.747-26.329
		c-1.971-1.963-4.985-3.811-3.286-7.524C195.619,22.653,199.243,21.994,202.958,22.46z"/>
	<path class="st38" d="M382.983,181.312c-5.824-5.186-11.699-10.317-15.997-16.954c-0.803-1.239-1.87-2.317-2.875-3.415
		c-9.286-10.15-18.671-20.21-27.857-30.45c-10.395-11.588-20.9-23.099-31.093-34.841c-12.597-14.51-25.812-28.454-38.348-43.011
		c-6.142-7.133-12.959-13.682-18.43-21.401c-0.69-0.974-1.42-1.835-1.327-3.102c2.642,0.817,5.546,0.658,8.007,2.148
		c1.974,5.31,6.506,8.664,10.04,12.712c12.771,14.63,25.757,29.076,38.727,43.528c9.425,10.502,18.678,21.159,28.178,31.596
		c12.735,13.991,25.426,28.025,37.729,42.406c3.99,4.664,8.735,8.668,12.223,13.785
		C381.911,176.704,383.478,178.857,382.983,181.312z"/>
	<path class="st39" d="M191.996,23.334c0.272,2.473,1.806,4.173,3.405,5.923c16.44,17.995,32.921,35.949,48.71,54.531
		c4.596,5.41,9.906,10.213,14.888,15.295c-3.579,3.205-7.326,0.598-11.003,0.331c-5.138-3.748-8.692-8.987-12.819-13.699
		c-7.857-8.971-16.011-17.675-23.887-26.633c-8.528-9.7-17.19-19.288-25.711-28.997c-1.446-1.648-3.465-3.269-2.718-6.01
		C185.807,22.596,188.948,23.534,191.996,23.334z"/>
	<path class="st40" d="M128.939,39.281c2.696-2.059,5.878-3.006,9.055-3.966c1.208-0.506,1.907,0.333,2.469,1.1
		c5.117,6.984,11.603,12.739,17.267,19.242c8.813,10.119,17.476,20.394,26.916,29.957c1.758,1.78,3.406,3.656,4.586,5.862
		c0.738,1.379,2.026,2.834,0.36,4.462c-1.934,0.981-3.951,0.787-5.98,0.439c-5.264-0.242-8.257-3.586-11.658-7.275
		c-13.266-14.389-25.959-29.285-39.206-43.685C131.099,43.625,128.869,42.156,128.939,39.281z"/>
	<path class="st41" d="M152.958,30.219c2.515-1.273,5.187-1.932,7.997-2.056c3.888,3.125,7.463,6.667,10.548,10.495
		c12.913,16.022,27.932,30.179,40.703,46.315c2.062,2.605,4.726,4.671,6.865,7.208c1.328,1.576,3.149,3.14,1.687,5.617
		c-1.381,0.859-2.865,0.781-4.375,0.499c-5.328-0.081-8.598-3.313-11.874-7.096c-13.717-15.843-27.83-31.337-41.863-46.901
		c-2.896-3.212-5.551-6.634-8.602-9.718C152.918,33.442,151.646,32.084,152.958,30.219z"/>
	<path class="st42" d="M189.994,95.349c-1.673-3.475-4.023-6.415-6.647-9.251c-15.415-16.66-30.614-33.517-45.352-50.783
		c2.422-1.65,5.198-2.342,8.003-2.953c6.988,7.072,13.579,14.502,20.16,21.952c8.232,9.321,16.413,18.695,24.972,27.72
		c2.866,3.021,5.594,6.141,8.017,9.504c1.208,1.677,2.729,3.669,0.15,5.605C195.904,98.044,192.679,98.09,189.994,95.349z"/>
	<path class="st43" d="M128.939,39.281c8.218,9.044,16.488,18.043,24.639,27.147c7.157,7.993,14.415,15.916,21.137,24.266
		c2.367,2.94,5.257,3.455,8.286,4.393c-4.228,2.915-9.104,1.977-13.76,2.325c-1.561-0.331-2.586-1.412-3.493-2.617
		c-4.201-5.582-9.636-10.112-13.904-15.542c-7.29-9.273-16.303-16.996-23.181-26.576c-2.402-3.345-6.361-5.376-7.839-9.465
		C123.269,41.366,125.969,40.044,128.939,39.281z"/>
	<path class="st44" d="M199.998,96.149c-1.102-4.615-4.691-7.561-7.61-10.846c-14.968-16.845-30.109-33.536-45.149-50.317
		c-0.619-0.69-0.837-1.741-1.241-2.623c2.199-1.109,4.465-1.998,6.961-2.143c1.54,5.018,6.092,7.73,9.218,11.449
		c9.578,11.393,19.901,22.159,29.87,33.226c4.314,4.789,8.477,9.714,12.699,14.586c3.072,3.546,5.846,7.523,11.254,7.608
		C210.459,100.299,205.22,98.378,199.998,96.149z"/>
	<path class="st45" d="M220.998,97.184c-5.947-7.069-11.714-14.298-17.877-21.173c-13.577-15.146-27.363-30.105-41.017-45.182
		c-0.614-0.678-0.776-1.767-1.149-2.665c1.707-0.549,3.414-1.097,5.122-1.645c3.602,0.532,5.87,3.074,7.975,5.626
		c11.974,14.516,25.198,27.929,37.294,42.322c5.472,6.511,12.159,11.918,16.926,19.019c1.93,2.875,4.914,2.335,7.66,2.686
		c1.122,0.56,3.029,0.659,1.619,2.723C231.794,100.638,226.246,100.358,220.998,97.184z"/>
	<path class="st46" d="M379.126,160.124c1.554,2.518,0.65,5.598,1.87,8.192c-2.615,0.602-4.1-1.128-5.211-2.924
		c-1.784-2.883-4.326-5.028-6.519-7.513c-9.659-10.947-19.832-21.428-29.074-32.76c-5.339-6.546-11.268-12.669-17.024-18.813
		c-8.516-9.09-16.721-18.496-24.918-27.819c-10.735-12.21-22.839-23.246-32.231-36.639c-1.527-2.177-3.814-3.723-5.437-5.835
		c-1.471-1.915-1.39-2.008,0.541-3.783c1.68,0.552,3.511,0.734,4.904,1.995c12.006,13.524,24.216,26.864,36.181,40.427
		c6.807,7.716,13.657,15.403,20.587,23.008c4.365,4.79,8.405,9.881,12.864,14.538C350.584,127.785,363.914,144.807,379.126,160.124z
		"/>
	<path class="st47" d="M376.218,150.264c0.742,0.479,0.811,1.225,0.796,2.005c0.928,1.601,0.189,2.379-1.356,2.761
		c-4.904-1.64-7.298-6.163-10.361-9.669c-10.377-11.877-21.081-23.456-31.519-35.275c-19.792-22.411-39.679-44.737-59.784-66.868
		c-1.438-1.583-2.867-3.293-3.44-5.408c-0.24-0.886-0.024-2.107,1.56-1.573c1.818,1.296,4.4,1.081,5.912,2.983
		c12.811,14.154,25.746,28.203,38.439,42.456c11.472,12.882,23.415,25.389,34.383,38.656
		C359.187,130.416,369.838,138.555,376.218,150.264z"/>
	<path class="st48" d="M376.218,150.264c-4.453-1.75-5.215-6.747-8.395-9.579c-10.587-9.431-19.217-20.705-28.676-31.15
		c-11.669-12.886-23.613-25.584-34.677-38.999c-7.309-8.862-15.878-16.495-23.157-25.342c-1.5-1.823-3.121-3.466-3.287-5.974
		c3.485,0.321,6.336,2.078,9.108,4.015c8.066,9.605,16.011,19.34,24.755,28.321c3.849,3.954,6.893,8.521,10.828,12.371
		c8.898,8.704,16.854,18.32,25.033,27.653c8.851,10.1,18.662,19.454,26.174,30.713C374.689,144.95,375.453,147.607,376.218,150.264z
		"/>
	<path class="st49" d="M120.823,43.213c4.35,3.12,7.514,7.359,10.997,11.338c10.977,12.543,22.138,24.925,33.279,37.324
		c1.247,1.387,2.187,2.893,2.93,4.565c-0.23,2.37-2.287,2.263-3.84,2.845c-2.208,0.349-3.877-0.582-5.214-2.25
		c-2.297-2.865-5.146-5.216-7.539-7.976c-12.295-14.18-24.852-28.122-37.659-41.841c0.43-0.561,0.86-1.122,1.29-1.681
		C116.985,44.762,118.904,43.987,120.823,43.213z"/>
	<path class="st50" d="M235.006,97.244c-3.876,0.773-6.232-0.966-8.735-3.969c-7.634-9.157-15.754-17.907-23.652-26.845
		c-9.431-10.672-19.322-20.932-28.276-32.034c-2.37-2.938-5.491-5.27-8.266-7.879c2.641-0.374,5.282-0.748,7.922-1.123
		c6.867,7.006,13.081,14.602,19.702,21.834c9.882,10.794,19.438,21.89,29.322,32.685c3.487,3.809,6.758,7.796,10.167,11.664
		C234.495,93.059,236.427,94.721,235.006,97.244z"/>
	<path class="st51" d="M373.924,142.294c-8.215-7.616-15.461-16.155-22.615-24.711c-4.555-5.447-10.007-10.027-14.252-15.711
		c-6.887-9.223-15.904-16.551-22.674-25.963c-2.675-3.719-6.635-6.781-9.763-10.407c-5.882-6.817-11.961-13.464-17.935-20.203
		c-0.703-0.793-0.343-1.512,0.448-2.061c1.56,0.817,2.95,2.044,4.864,1.996c1.371,1.003,2.741,2.007,4.112,3.01
		c7.022,8.141,14.155,16.184,21.299,24.218c8.373,9.415,17.104,18.523,24.886,28.455c0.41,0.523,0.781,1.085,1.263,1.539
		c9.193,8.64,16.889,18.647,25.459,27.855c1.636,3.388,3.273,6.776,4.909,10.165C373.924,141.082,373.924,141.688,373.924,142.294z"
		/>
	<path class="st52" d="M182.862,24.074c5.297,9.143,13.5,15.826,20.27,23.715c13.453,15.675,27.426,30.902,41.141,46.353
		c1.082,1.219,1.824,2.739,2.724,4.119c-1.489,1.652-3.341,1.43-5.229,1.027c-7.041-7.236-13.869-14.677-20.421-22.374
		c-7.435-8.734-15.176-17.212-22.962-25.615c-6.56-7.079-12.274-14.894-19.23-21.611c-1.395-1.347-2.88-3.006-1.158-5.203
		C179.618,24.348,181.24,24.211,182.862,24.074z"/>
	<path class="st53" d="M272.114,36.236c-1.582,3.481,1.752,5.005,3.255,6.711c10.504,11.928,21.45,23.465,32.027,35.33
		c11.225,12.59,22.149,25.449,33.303,38.103c6.678,7.576,13.549,14.981,20.327,22.469c4.662,5.15,9.313,10.311,13.969,15.467
		c0.968,0.801,2.262,1.063,3.189,1.931c1.147,1.091,0.752,2.555,0.94,3.878c-5.107-0.949-7.424-5.461-10.308-8.811
		c-9.837-11.429-20.115-22.459-30.008-33.825c-14.027-16.115-28.814-31.551-42.431-48.035c-5.38-6.513-11.724-12.221-17.249-18.624
		c-4.6-5.33-9.863-10.186-13.102-16.607C268.056,34.894,270.085,35.565,272.114,36.236z"/>
	<path class="st54" d="M381.961,174.314c-5.394-3.364-8.989-8.603-13.264-13.084c-6.737-7.062-12.863-14.703-19.331-22.025
		c-13.054-14.777-26.63-29.083-39.324-44.188c-6.502-7.737-13.575-14.994-20.344-22.509c-11.757-13.055-23.479-26.141-35.214-39.215
		c-1.12-1.248-2.181-2.498,0.579-3.005c1.108,0.017,2.243-0.055,3.035,0.96c0.641,2.114,1.831,3.866,3.304,5.511
		c15.404,17.203,30.854,34.363,46.328,51.503c10.896,12.07,21.65,24.277,32.468,36.423c11.045,12.401,21.966,24.912,33.259,37.091
		c2.408,2.597,3.463,6.616,7.637,7.393C382.45,170.704,381.904,172.56,381.961,174.314z"/>
	<path class="st52" d="M177.997,24.485c-0.331,2.562,1.649,3.791,3.045,5.399c14.765,16.999,30.368,33.252,44.776,50.573
		c4.965,5.969,11.442,10.652,15.177,17.693c-1.004,1.005-2.003,1.012-2.996-0.017c-0.802-0.957-1.937-0.789-2.994-0.888
		c-2.359-6.25-7.614-10.295-11.797-15.087c-15.745-18.041-32.32-35.35-47.657-53.757c-0.756-0.907-1.535-1.745-1.554-3.007
		C175.331,25.091,176.664,24.788,177.997,24.485z"/>
	<path class="st55" d="M381.095,169.168c-2.075,2.192-3.005-0.241-3.865-1.211c-11.657-13.144-23.187-26.4-34.812-39.573
		c-8.56-9.699-17.2-19.327-25.826-28.967c-14.153-15.819-28.308-31.637-42.497-47.423c-4.217-4.691-8.636-9.203-12.789-13.948
		c-1.658-1.894-4.448-3.456-3.207-6.798c1.098,0.052,2.239-0.031,3.024,0.982c-2.01,1.729,0.022,2.574,0.863,3.541
		c15.098,17.386,30.717,34.306,46.108,51.426c16.818,18.708,33.513,37.538,50.159,56.394c6.418,7.27,14.052,13.62,19.187,22.067
		c0.713,1.173,2.349,1.785,3.557,2.657C381.079,168.594,381.112,168.878,381.095,169.168z"/>
	<path class="st56" d="M369.016,130.31c-5.606-2.307-8.096-7.909-12.263-11.746c-1.25-1.151-1.987-2.997-3.297-4.306
		c-14.554-14.544-27.167-30.838-41.239-45.794c-4.741-5.039-8.406-11.03-13.889-15.398c-1.406-1.12-3.273-2.401-2.22-4.823
		c4.663,2.091,8.922,4.822,12.833,8.104c1.65,3.585,4.786,5.92,7.373,8.709c13.45,14.503,26.015,29.806,39.774,44.027
		c2.183,2.256,2.965,5.653,5.973,7.209C364.952,120.681,367.376,125.301,369.016,130.31z"/>
	<path class="st57" d="M362.062,116.292c-1.164-0.008-2.188-0.052-3.098-1.126c-9.215-10.869-18.703-21.489-28.356-31.98
		c-6.602-7.175-12.789-14.753-19.592-21.771c-1.323-1.365-2.992-2.726-2.073-5.069c12.01,8.12,22.366,18.071,31.962,28.865
		c0.981,1.104,2.038,2.14,3.06,3.208C350.588,97.327,356.878,106.451,362.062,116.292z"/>
	<path class="st30" d="M60.921,93.295c0.368-0.967,0.736-1.933,1.105-2.9c1.59-1.387,3.181-2.774,4.771-4.161
		c2.469-1.4,3.691,0.513,4.954,1.979c7.062,8.198,14.511,16.048,21.677,24.154c12.335,13.954,24.471,28.089,37.41,41.509
		c0.814,2.301,0.653,4.632,0.245,6.973c-0.571,1.677-0.621,3.51-1.485,5.103c-2.986,1.773-4.27-1.002-5.654-2.466
		c-7.547-7.983-14.797-16.242-22.196-24.363c-13.449-14.762-26.194-30.157-40.026-44.575C61.373,94.184,61.105,93.766,60.921,93.295
		z"/>
	<path class="st58" d="M99.02,56.36c2.393-2.035,4.811-4.032,7.831-5.106c2.105-1.238,3.575,0.107,4.736,1.459
		c13.809,16.079,28.539,31.345,42.068,47.669c0.736,0.888,1.454,1.817,1.743,2.985c-1.355,4.038-3.69,7.005-8.251,7.537
		c-6.441-4.281-10.837-10.574-15.934-16.189c-8.89-9.794-17.463-19.872-26.56-29.483C102.241,62.685,99.015,60.505,99.02,56.36z"/>
	<path class="st59" d="M72.943,79.227c2.01-2.667,4.359-4.994,7.024-7.005c8.736,9.725,17.331,19.577,26.092,29.278
		c9.76,10.807,19.097,22.004,29.461,32.267c-0.103,4.045-0.876,7.848-3.927,10.824c-2.656-0.144-3.987-2.275-5.512-3.924
		c-9.478-10.247-18.589-20.825-27.925-31.203c-7.554-8.397-15.299-16.632-22.594-25.261C74.334,82.752,72.282,81.689,72.943,79.227z
		"/>
	<path class="st60" d="M72.943,79.227c7.051,7.896,14.109,15.785,21.15,23.689c12.321,13.832,24.632,27.673,36.948,41.51
		c2.188,3.234,1.075,6.112-0.96,8.89c-1.909,0.036-2.999-1.319-4.097-2.536c-12.632-14.015-25.282-28.01-37.61-42.3
		c-6.159-7.139-12.862-13.819-18.921-21.071c-0.556-0.665-1.753-0.795-2.654-1.173C68.03,83.184,70.544,81.256,72.943,79.227z"/>
	<path class="st61" d="M99.02,56.36c8.739,10.815,18.383,20.825,27.66,31.161c6.845,7.625,13.593,15.337,20.385,23.01
		c0.117,3.867-2.483,6.017-5.136,8.138c-2.681-0.057-4.086-2.081-5.547-3.821c-12.286-14.64-25.453-28.497-38.048-42.862
		c-1.865-2.128-3.522-4.42-5.401-6.538c-0.947-1.067-2.18-2.249-0.926-3.917C94.345,59.807,96.683,58.083,99.02,56.36z"/>
	<path class="st62" d="M134.82,133.312c-1.234,0.834-2.094,0.31-2.972-0.677c-16.149-18.164-32.334-36.296-48.453-54.488
		c-1.508-1.702-3.074-3.496-3.429-5.924c1.332-1.988,3.072-3.557,5.033-4.899c1.997,0.29,3.16,1.783,4.353,3.146
		c14.903,17.032,30.206,33.71,45.038,50.804c1.308,1.507,3.16,2.479,4.134,4.304C138.567,128.769,137.988,131.662,134.82,133.312z"
		/>
	<path class="st63" d="M138.024,125.323c-1.689,0.011-2.741-1.105-3.726-2.224c-11.587-13.158-23.071-26.407-34.764-39.469
		c-4.856-5.425-10.063-10.537-14.536-16.306c2.336-1.932,4.672-3.864,7.008-5.795c2.785,5.724,7.592,9.903,11.628,14.592
		c11.955,13.886,24.396,27.354,36.662,40.971c0.435,0.483,1.034,0.817,1.557,1.22C142.4,121.645,141.573,124.227,138.024,125.323z"
		/>
	<path class="st64" d="M155.311,103.465c-6.192-6.667-12.835-12.977-18.457-20.094c-6.607-8.364-14.236-15.751-21.21-23.749
		c-2.628-3.014-4.078-7.48-8.791-8.368c1.828-2.171,4.333-3.181,6.925-4.038c5.043,1.653,7.972,5.977,11.054,9.674
		c11.449,13.733,24.044,26.432,35.554,40.096c0.998,1.185,2.205,1.335,3.559,1.315C162.417,102.281,159.218,103.465,155.311,103.465
		z"/>
	<path class="st65" d="M376.953,254.313c0.051,0.669,0.101,1.339,0.152,2.008c-1.057,2.664-2.115,5.329-3.172,7.993
		c-2.952,1.536-4.363-0.999-5.723-2.552c-7.758-8.864-15.917-17.379-23.437-26.443c-6.68-8.051-13.813-15.737-20.909-23.355
		c-13.91-14.934-26.396-31.155-41.15-45.307c-0.356-0.342-0.534-0.835-0.729-1.302c-0.778-4.002-0.839-8,0.011-11.993
		c0.974-2.125,2.498-1.823,4.106-0.862c1.296,0.775,2.398,1.823,3.34,2.978c13.132,16.101,27.434,31.178,41.27,46.651
		c13.172,14.73,25.903,29.867,39.595,44.132C372.728,248.782,375.191,251.254,376.953,254.313z"/>
	<path class="st40" d="M364.162,286.367c-1.693,3.04-2.223,6.729-5.083,9.119c-6.073-3.014-9.122-9.055-13.498-13.73
		c-13.294-14.202-25.813-29.113-38.96-43.454c-7.643-8.336-14.688-17.22-22.905-25.032c-0.85-0.808-1.475-1.802-1.805-2.96
		c-0.587-3.699-0.785-7.391,0.135-11.065c1.593-2.681,3.344-1.298,4.951-0.083c2.141,1.62,3.534,3.954,5.318,5.916
		c15.298,16.824,30.434,33.802,45.407,50.905C346.56,266.079,356.628,275.136,364.162,286.367z"/>
	<path class="st41" d="M283.053,166.314c5.489,2.539,8.805,7.356,12.331,11.908c6.2,8.004,13.362,15.205,20.151,22.637
		c8.497,9.302,16.542,19.029,25.347,28.086c9.918,10.201,18.868,21.34,28.308,32.01c1.277,1.443,2.447,3.259,4.743,3.359
		c-0.708,3.319-1.794,6.48-3.822,9.253c-4.003-3.269-7.638-6.979-10.947-10.876c-13.252-15.608-27.208-30.591-40.72-45.966
		c-8.01-9.115-15.939-18.346-24.423-27.055c-4.406-4.524-8.556-9.275-12.139-14.51C281.483,172.104,280.699,168.999,283.053,166.314
		z"/>
	<path class="st58" d="M345.224,315.428c-2.506,3.196-4.119,7.206-8.187,8.977c-4.239-1.747-6.129-5.902-8.971-9.015
		c-13.957-15.284-27.44-30.997-41.503-46.19c-2.576-2.783-5.238-5.502-7.377-8.671c0.399-5.481,0.573-10.999,2.73-16.179
		c0.309-0.176,0.773-0.326,0.897-0.134c5.426,8.406,13.248,14.707,19.645,22.277c7.689,9.099,15.655,17.996,23.73,26.782
		C332.771,300.439,339.292,307.689,345.224,315.428z"/>
	<path class="st64" d="M345.224,315.428c-5.398-3.969-9.415-9.267-13.852-14.185c-15.311-16.966-29.831-34.647-45.923-50.903
		c-1.791-1.81-2.696-3.699-2.518-6.173c-2.037-2.428-1.505-5.137-0.868-7.855c2.341-3.042,3.785-0.174,5.159,1.002
		c5.196,4.446,9.311,9.929,13.825,15.019c13.547,15.277,27.321,30.351,40.825,45.663c3.058,3.467,7.328,6.248,8.159,11.379
		C348.887,311.757,347.339,313.818,345.224,315.428z"/>
	<path class="st61" d="M280.052,261.317c5.347,3.4,8.976,8.59,13.237,13.071c7.286,7.662,14.126,15.756,21.023,23.781
		c7.542,8.774,15.998,16.757,22.724,26.237c-2.21,2.164-3.17,5.388-5.98,7.042c-6.09-3.182-9.482-9.13-13.864-13.968
		c-12.895-14.236-25.624-28.628-38.369-43.002c-0.987-1.113-2.136-2.1-2.61-3.59C276.199,267.177,276.553,263.615,280.052,261.317z"
		/>
	<path class="st66" d="M283.052,176.315c6.817,5.13,11.907,12.032,17.359,18.361c7.04,8.171,14.522,15.929,21.636,24.02
		c15.111,17.188,29.909,34.67,45.906,51.065c1.065,1.092,2.078,2.171,2.158,3.805c-0.672,1.603-1.346,3.204-2.019,4.805
		c-2.663,0.644-3.872-1.508-5.282-2.957c-10.099-10.369-19.324-21.53-29.022-32.264c-8.024-8.882-16.03-17.781-23.983-26.727
		c-9.264-10.421-18.642-20.741-27.869-31.212C281.434,182.133,280.699,179.028,283.052,176.315z"/>
	<path class="st67" d="M276.748,271.246c6.049,3.993,9.758,10.252,14.674,15.34c7.325,7.581,14.044,15.749,21.015,23.673
		c6.21,7.059,12.413,14.124,18.62,21.187c-1.737,2.249-3.682,4.282-6.058,5.871c-4.457-2.158-6.9-6.459-10.115-9.86
		c-7.948-8.408-15.457-17.231-23.138-25.892c-5.157-5.815-10.284-11.658-15.476-17.442c-1.2-1.337-2.38-2.848-4.467-2.866
		C271.35,276.882,272.982,273.537,276.748,271.246z"/>
	<path class="st42" d="M364.162,286.367c-3.941-1.617-5.293-5.708-8.065-8.441c-15.009-14.799-28.304-31.174-42.369-46.823
		c-8.387-9.331-17.595-18.028-24.936-28.331c-1.361-1.911-2.922-4.15-5.74-4.458c-1.864-1.805-1.563-3.949-0.967-6.135
		c2.62-3.151,4.586-0.62,5.992,1.108c5.665,6.96,11.872,13.423,17.845,20.101c9.842,11.005,19.742,21.96,29.485,33.051
		c9.963,11.343,20.213,22.428,30.098,33.839c0.534,0.617,1.1,1.269,0.589,2.188C365.874,283.976,365.25,285.286,364.162,286.367z"/>
	<path class="st43" d="M283.052,211.314c7.371,5.802,13.02,13.273,19.328,20.092c7.655,8.276,15.014,16.827,22.479,25.278
		c11.416,12.924,22.814,25.865,34.219,38.799c-1.248,1.509-1.001,3.931-3.031,4.961c-1.162-0.415-1.855-1.388-2.602-2.266
		c-14.433-16.962-29.634-33.247-44.412-49.902c-8.256-9.304-15.772-19.355-25.238-27.572c-0.764-0.663-1.462-1.358-1.803-2.349
		C281.479,215.876,280.988,213.401,283.052,211.314z"/>
	<path class="st49" d="M350.03,309.376c-7.708-8.872-15.067-18.08-23.202-26.542c-13.797-14.353-26.205-29.942-40.063-44.224
		c-1.149-1.184-2.472-2.201-3.714-3.295c-1.653-1.522-1.479-3.355-0.901-5.255c3.059-3.185,4.9-0.074,6.432,1.637
		c6.326,7.065,12.803,13.994,19.099,21.086c10.603,11.942,21.257,23.838,31.89,35.752c3.765,4.219,7.331,8.614,11.451,12.515
		c1.17,1.108,2.502,2.293,1.967,4.257C352.242,306.837,351.616,308.455,350.03,309.376z"/>
	<path class="st68" d="M366.095,282.466c-8.885-9.798-17.82-19.55-26.638-29.408c-6.619-7.399-12.98-15.031-19.65-22.383
		c-10.68-11.772-21.659-23.273-31.701-35.617c-1.315-1.617-2.583-3.564-5.052-3.743c-1.533-1.667-1.533-3.334-0.001-5.001
		c2.972,0.402,4.376,2.902,6.103,4.81c7.775,8.589,15.421,17.294,23.109,25.962c12.85,14.487,25.616,29.051,38.583,43.433
		c5.536,6.141,10.523,12.842,17.244,17.85C367.861,279.947,367.238,281.334,366.095,282.466z"/>
	<path class="st69" d="M352.99,305.307c-7.083-7.914-14.168-15.826-21.247-23.743c-13.938-15.59-27.83-31.222-41.858-46.731
		c-1.94-2.144-3.537-4.953-6.833-5.518c-1.658-1.529-1.482-3.366-0.895-5.271c2.179-2.702,3.828-0.774,5.252,0.786
		c10.757,11.78,21.244,23.803,31.899,35.674c8.101,9.026,16.097,18.152,24.362,27.026c3.179,3.413,6.045,7.076,9.159,10.533
		c1.333,1.479,2.479,3.233,1.23,5.409C353.704,304.084,353.347,304.695,352.99,305.307z"/>
	<path class="st43" d="M354.061,303.472c-0.781-5.216-5.12-8.111-8.203-11.566c-16.41-18.387-33.101-36.518-49.208-55.185
		c-4.115-4.769-8.093-9.933-13.597-13.407c-1.239-1.333-1.239-2.666,0-3.999c6.628,3.273,10.36,9.526,15.078,14.744
		c7.872,8.708,15.607,17.539,23.416,26.304c11.111,12.471,22.248,24.92,33.326,37.421c0.612,0.691,0.792,1.764,1.174,2.66
		C355.911,301.799,355.192,302.77,354.061,303.472z"/>
	<path class="st36" d="M305.052,104.318c4.967,4.401,9.938,8.797,13.791,14.275c5.644,8.024,12.858,14.752,19.395,21.935
		c14.16,15.56,27.616,31.768,42.324,46.83c1.036,1.061,2.237,1.96,3.362,2.935c0.039,1.967,0.079,3.935,0.119,5.902
		c1.137,2.252-0.198,4.788,0.81,7.055c-0.009,0.37-0.018,0.741-0.028,1.111c-2.26,3.141-4.114,0.937-5.522-0.708
		c-7.573-8.848-15.515-17.364-23.203-26.107c-10.435-11.866-21.219-23.42-31.564-35.366c-9.568-11.049-19.807-21.512-28.835-33.035
		C297.704,105.382,301.452,104.994,305.052,104.318z"/>
	<path class="st47" d="M378.185,156.247c-1.523,0.116-2.574-0.548-3.189-1.931c1.31-0.053,1.954-0.765,2.019-2.047
		C378.296,153.332,377.915,154.885,378.185,156.247z"/>
	<path class="st34" d="M384.852,203.251c-1.638-2.194-0.558-4.7-0.811-7.054c0.298,0.084,0.595,0.171,0.891,0.261
		C384.905,198.723,384.879,200.987,384.852,203.251z"/>
	<path class="st24" d="M107.987,301.322c-7.436-7.976-14.961-15.871-22.283-23.95c-7.214-7.96-14.173-16.151-21.334-24.161
		c-11.906-13.317-23.841-26.609-35.906-39.781c-0.998-1.09-1.798-4.218-4.54-2.017c-1.655-2.529-0.431-5.434-1.057-8.099
		c0.09-0.355,0.181-0.709,0.272-1.064c0.956-1.921-0.267-4.136,0.815-6.041c0.013-0.965,0.027-1.929,0.04-2.894
		c2.643-0.574,3.919,1.501,5.266,3.001c12.091,13.456,24.264,26.837,36.218,40.417c7.454,8.468,14.78,17.07,22.588,25.208
		c7.592,7.913,14.144,16.739,21.966,24.448c1.931,1.903,3.971,4.087,4.351,7.102c-1.186,2.786-5.748,2.803-5.538,6.745
		c-0.246,0.384-0.527,0.739-0.84,1.069L107.987,301.322z"/>
	<path class="st19" d="M33.925,143.202c0-0.629,0-1.258-0.001-1.887c1.687-3.672,3.375-7.344,5.062-11.016
		c2.513,0.482,3.87,2.508,5.397,4.208c19.784,22.023,39.506,44.102,59.187,66.216c8.83,9.921,18.045,19.503,26.516,29.757
		c0.528,5.505,0.553,11.005,0.003,16.5c-1.784,3.29-3.67,1.302-5.086-0.172c-3.224-3.356-6.677-6.497-9.708-10.031
		c-15.893-18.532-32.588-36.351-48.69-54.691c-10.299-11.73-21.038-23.064-31.114-34.987
		C34.554,145.992,33.355,144.937,33.925,143.202z"/>
	<path class="st70" d="M44.881,118.286c0.993-3.402,3.064-6.195,5.091-9.013c2.072-0.07,3.325,1.246,4.576,2.634
		c21.938,24.338,43.616,48.91,65.475,73.318c3.313,3.699,7.04,7.036,9.997,11.067c0.585,4.003,0.655,8.002-0.021,11.996
		c-3.146,3.73-5.098,0.249-6.687-1.513c-5.794-6.424-11.522-12.909-17.277-19.37c-12.945-14.535-26.044-28.935-38.825-43.613
		C59.789,135.269,51.441,127.557,44.881,118.286z"/>
	<path class="st71" d="M60.921,93.295c3.889,0.895,5.868,4.222,8.22,6.86c8.35,9.366,16.327,19.066,24.684,28.425
		c10.462,11.717,21.149,23.233,31.772,34.805c0.998,1.087,2.23,1.959,3.353,2.931c2.628,3.682,1.251,7.754,1.15,11.696
		c-1.793,3.446-3.811,1.533-5.553,0.061c-4.454-3.763-7.967-8.453-11.771-12.808c-14.833-16.98-30.222-33.464-44.937-50.546
		c-4.085-4.742-9.094-8.715-11.967-14.46C56.95,97.499,58.825,95.317,60.921,93.295z"/>
	<path class="st23" d="M128.945,229.316c-2.471-0.172-3.661-2.171-5.066-3.728c-8.207-9.094-16.369-18.228-24.494-27.394
		c-12.404-13.995-24.738-28.052-37.155-42.035c-7.696-8.666-15.492-17.242-23.243-25.858c0.327-2.31,1.429-4.255,2.852-6.048
		c1.968-1.28,3.062,0.188,4.198,1.377c8.375,8.772,16.268,17.986,24.265,27.09c9.535,10.855,19.425,21.387,28.887,32.309
		c7.825,9.032,15.953,17.812,23.817,26.816c2.285,2.616,5.491,4.364,7.075,7.625C130.225,222.814,131.446,226.282,128.945,229.316z"
		/>
	<path class="st72" d="M128.945,218.316c-2.99-0.37-4.425-2.885-6.142-4.783c-14.798-16.349-29.173-33.071-44.183-49.239
		c-11.72-12.624-22.796-25.847-34.146-38.814c-0.717-0.82-1.618-1.114-2.634-1.228c0.609-2.196,1.509-4.243,3.042-5.966
		c3.953,1.456,5.753,5.246,8.378,8.051c8.132,8.691,15.934,17.692,23.843,26.591c12.851,14.461,25.474,29.133,38.649,43.293
		c4.192,4.506,6.959,10.612,13.195,13.095C131.067,212.316,131.067,215.316,128.945,218.316z"/>
	<path class="st73" d="M128.947,195.316c-3.434-0.664-5.1-3.601-7.146-5.871c-10.192-11.302-20.22-22.752-30.319-34.139
		c-12.624-14.234-25.251-28.465-37.907-42.671c-1.088-1.222-2.397-2.246-3.604-3.363c1.008-1.652,2.016-3.303,3.025-4.955
		c2.682,0.532,4.157,2.717,5.789,4.516c12.175,13.425,24.187,26.998,36.306,40.475c11.225,12.482,21.957,25.411,33.847,37.29
		c0.481,0.481,0.808,1.05,1.07,1.676C130.383,190.734,131.028,193.233,128.947,195.316z"/>
	<path class="st73" d="M128.947,187.316c-3.296-0.553-4.888-3.362-6.825-5.502c-10.668-11.789-21.163-23.734-31.74-35.605
		c-12.45-13.974-24.923-27.928-37.386-41.89c0.741-1.507,1.224-3.197,2.876-4.058c7.51,6.583,13.439,14.64,20.281,21.852
		c6.841,7.211,13.058,15.009,19.679,22.434c9.5,10.654,19.103,21.216,28.707,31.777c1.199,1.318,2.299,2.944,4.408,2.995
		C130.972,181.983,130.972,184.65,128.947,187.316z"/>
	<path class="st18" d="M33.925,143.202c6.598,7.446,13.19,14.896,19.794,22.336c12.992,14.633,25.945,29.301,39,43.878
		c11.291,12.609,22.693,25.119,34.082,37.64c0.532,0.585,1.421,0.845,2.144,1.257c2.206,2.21,1.243,5.022,1.338,7.584
		c0.147,3.986,0.097,7.982,0.007,11.972c-0.036,1.624,0.242,3.638-1.567,4.411c-1.943,0.83-3.559-0.544-4.815-1.846
		c-3.229-3.348-6.182-6.952-9.274-10.428c-13.141-14.77-26.36-29.472-39.512-44.232c-12.157-13.643-24.609-27.029-36.383-41.005
		c-3.513-4.17-8.374-7.192-10.641-12.418C29.536,155.814,30.927,149.263,33.925,143.202z"/>
	<path class="st22" d="M28.097,162.35c10.41,8.63,18.153,19.757,27.476,29.414c6.775,7.018,12.881,14.678,19.368,21.979
		c13.641,15.353,27.331,30.662,41.014,45.978c3.201,3.583,6.432,7.14,9.701,10.661c0.665,0.717,1.619,1.423,2.633,1.021
		c1.194-0.473,0.673-1.725,0.677-2.629c0.03-6.82-0.005-13.64-0.02-20.46c0-6.332,0-12.665,0-18.997c0-3.667,0-7.333,0-11
		c0-3,0.001-6,0.001-9c0-4.667,0.001-9.333,0.001-14c0-2.667,0-5.333,0-8c0-2.666,0.001-5.333,0.001-7.999
		c0.001-4.333,0.002-8.666,0.002-12.999c0.254-1.665-0.458-3.484,0.797-4.988c2.186,1.663,1.932,4.127,1.936,6.397
		c0.062,35.392,0.096,70.783-0.013,106.175c-0.014,4.518-0.582,8.981-3.667,12.647c-2.517,2.436-4.466,1.114-6.248-1.014
		c-6.824-8.149-14.202-15.802-21.32-23.685c-13.791-15.272-27.214-30.868-41.13-46.032c-8.409-9.163-16.849-18.334-24.718-27.98
		c-2.86-3.507-6.119-6.533-9.463-9.517C25.809,172.939,26.531,167.566,28.097,162.35z"/>
	<path class="st74" d="M25.127,178.32c4.361,0,6.246,3.684,8.483,6.294c10.791,12.589,22.05,24.749,33.092,37.107
		c17.006,19.033,33.665,38.375,51.104,57.025c2.671,2.856,4.63,6.376,8.024,8.564c-0.29,4.252-3.408,4.401-6.548,4.521
		c-12.355-14.128-25.102-27.914-37.511-42.005c-9.668-10.979-19.379-21.942-29.299-32.706c-8.905-9.663-17.388-19.704-26.31-29.351
		c-0.929-1.005-1.364-2.276-2.04-3.417C24.457,182.341,24.792,180.331,25.127,178.32z"/>
	<path class="st75" d="M24.121,184.352c9.6,7.816,16.295,18.325,25.055,26.964c7.413,7.311,13.852,15.607,20.76,23.433
		c12.615,14.289,25.235,28.574,37.911,42.808c2.432,2.731,5.11,5.247,7.72,7.816c1.693,1.667,3.147,3.438,3.426,5.908
		c-1.013,2.189-2.477,3.303-4.926,2.063c-9.561-10.998-19.258-21.871-29.065-32.655c-14.48-15.923-28.236-32.508-42.811-48.34
		c-5.931-6.442-11.147-13.639-18.198-19.032C24.036,190.328,24.079,187.34,24.121,184.352z"/>
	<path class="st75" d="M23.954,196.21c-0.205,2.023,0.738,4.201-0.816,6.041C23.182,200.206,22.516,198.066,23.954,196.21z"/>
	<path class="st34" d="M295.732,109.196c3.986,2.202,6.615,5.89,9.557,9.139c9.542,10.534,18.793,21.331,28.214,31.975
		c13.043,14.735,26.125,29.437,39.226,44.122c2.643,2.962,5.638,5.6,7.874,8.937c1.011,1.509,2.438,2.276,4.222,0.994
		c-0.16,7.024-0.682,14.016-1.819,20.955c-2.951,1.574-4.301-1-5.765-2.506c-7.424-7.634-14.383-15.722-21.406-23.701
		c-12.088-13.735-24.38-27.288-36.46-41.03c-10.762-12.242-21.772-24.264-32.573-36.473c-1.201-1.358-2.53-2.696-2.696-4.681
		C285.618,111.209,289.624,108.548,295.732,109.196z"/>
	<path class="st52" d="M376.953,254.313c-5.621-4.577-10.834-9.675-15.354-15.25c-8.048-9.924-16.861-19.148-25.242-28.76
		c-15.246-17.485-31.313-34.246-46.163-52.092c-1.946-2.339-3.71-5.217-7.141-5.897c-2.602-3.318-1.605-7.017-1.141-10.655
		c1.951-3.471,3.652-0.8,5.06,0.417c5.944,5.14,10.759,11.366,15.998,17.173c13.384,14.836,26.617,29.809,39.946,44.695
		c12.326,13.767,24.604,27.577,36.908,41.364C378.853,248.307,378.606,251.534,376.953,254.313z"/>
	<path class="st37" d="M284.877,117.055c8.023,9.238,15.879,18.628,24.106,27.68c15.805,17.389,31.306,35.045,46.927,52.594
		c7.697,8.647,15.23,17.494,23.367,25.763c1.046,1.063,2.035,2.239,3.729,2.224c0.463,3.431-0.921,6.647-1.161,9.996
		c-2.41,1.777-3.672-0.218-4.933-1.639c-12.231-13.786-24.603-27.446-36.884-41.187c-10.175-11.385-20.349-22.771-30.436-34.234
		c-9.091-10.332-18.547-20.337-27.549-30.764C281.582,123.627,280.42,119.575,284.877,117.055z"/>
	<path class="st76" d="M283.053,128.315c5.644,1.907,7.755,7.457,11.442,11.333c9.121,9.59,17.921,19.491,26.699,29.402
		c14.254,16.094,28.275,32.396,42.633,48.397c5.085,5.667,10.552,10.996,15.311,16.963c0.729,0.914,1.721,0.86,2.709,0.904
		c-0.353,1.978-0.704,3.956-1.056,5.934c-2.635,0.432-3.871-1.665-5.284-3.147c-10.559-11.068-20.679-22.538-30.781-34.021
		c-6.807-7.738-13.692-15.411-20.562-23.088c-10.529-11.768-21.247-23.366-31.428-35.442c-3.321-3.939-7.589-6.956-10.702-11.102
		C281.524,132.259,281.182,130.101,283.053,128.315z"/>
	<path class="st39" d="M283.054,135.316c4.905,1.849,7.835,6.1,10.981,9.781c10.107,11.825,20.617,23.278,31.009,34.844
		c14.698,16.361,29.054,33.028,43.697,49.439c3.746,4.198,8.02,7.925,12.051,11.868c-0.323,1.353-0.645,2.708-0.968,4.062
		c-3.383-0.752-5.099-3.66-7.147-5.92c-14.345-15.829-28.614-31.728-42.75-47.743c-14.247-16.141-28.377-32.384-43.165-48.037
		c-1.131-1.198-2.468-2.201-3.709-3.295C281.521,138.648,281.52,136.981,283.054,135.316z"/>
	<path class="st77" d="M283.054,135.316c-0.001,1.666-0.001,3.333-0.002,4.999c0,4,0,8,0,11.999c0,4.667,0,9.333,0.001,14
		c0,3.334-0.001,6.667-0.001,10.001c0,3.333,0,6.667,0.001,10c0,1.667,0.001,3.334,0.001,5.001c0,2.333,0,4.666,0,6.998
		c0,4.333-0.001,8.667-0.001,13c0,2.667,0.001,5.334,0.001,8.002c0,1.333,0,2.666,0,3.999c0,2,0,4-0.001,6.001
		c0,2-0.001,3.999-0.001,5.999c-0.04,2.952-0.08,5.903-0.121,8.854c-0.96,5.716-1.919,11.432-2.879,17.148
		c-1.101,3.31-2.202,6.619-3.304,9.929c-1.649,3.337-3.297,6.674-4.945,10.011c-1.936,2.684-3.873,5.369-5.809,8.054
		c-2.677,2.633-5.354,5.265-8.031,7.897c-3.025,1.919-6.05,3.838-9.076,5.757c-4.869,1.574-9.694,3.334-14.891,3.517
		c-3.936-0.083-7.873-0.166-11.808-0.249c-7.622-1.349-15.329-0.74-22.998-1c-6.686-1.311-13.45-0.879-20.195-0.901
		c-7.286-1.104-14.624-1.133-21.967-1.066c0,0,0.024,0.013,0.024,0.013c-3.598-1.21-7.371,0.129-10.992-0.752
		c-1.688-0.035-3.376-0.071-5.064-0.106c-1.646-0.042-3.292-0.085-4.939-0.127c-3.595-1.237-7.364,0.108-10.985-0.738
		c-1.358-0.024-2.717-0.049-4.075-0.073c-2.268-0.078-4.537-0.156-6.805-0.234c-1.933-1.149-4.274,0.322-6.186-0.964
		c-1.724-5.584,3.746-4.885,6.061-6.941c1.837-0.222,3.437-1.01,4.926-2.063c2.532-0.886,5.36-1.265,6.836-3.97
		c3.086-2.994,3.971-6.931,3.976-10.914c0.053-38.356-0.021-76.712-0.058-115.068c0.11-2.671,0.221-5.341,0.332-8.012
		c-0.708-3.074,2.012-5.779,0.96-8.89c2.213-3.381,2.616-7.377,3.78-11.114c1.068-2.663,2.136-5.326,3.205-7.989
		c1.686-2.113,2.978-4.442,3.831-7.011c1.737-2.594,3.473-5.188,5.21-7.781c3.517-1.458,5.579-4.614,8.245-7.066
		c2.879-1.721,5.757-3.442,8.635-5.163c1.134-1.117,3.111-0.389,4.082-1.863c4.969-0.695,9.925-1.54,14.973-1.352
		c2.331,0.087,4.662,0.174,6.993,0.261c3.299,0.715,6.623,1.112,10.004,0.8c5.334,0.313,10.668,0.626,16.002,0.94
		c1.666,0.032,3.332,0.064,4.998,0.096c5.667,0.316,11.335,0.632,17.002,0.949c0.999,0.006,1.997,0.011,2.996,0.017
		c2,0.037,4,0.074,6.001,0.111c3.974,0.674,7.969,1.031,12.003,0.821c2.666,0.059,5.332,0.119,7.997,0.178
		c6.643,0.794,13.305,1.202,19.998,1.001c1.308,0.029,2.617,0.058,3.925,0.086c3.543,1.11,7.219,0.798,10.834,0.839
		c2.343,0.027,3.346,0.875,3.299,3.131c-2.532,2.722-6.557,2.593-9.319,4.878c-4.167,1.862-9.464,2.164-10.855,7.86
		c-2.107,3.51-2.173,7.351-1.825,11.259C283.053,130.648,283.053,132.982,283.054,135.316z"/>
	<path class="st31" d="M146.061,302.526c3.679,0.027,7.396-0.499,10.991,0.752C153.394,302.945,149.627,304.202,146.061,302.526z"/>
	<path class="st17" d="M108.007,300.284c2.004,0.69,4.255-0.208,6.184,0.964c-2.061,0.019-4.124,0.038-6.186,0.058
		C108.006,300.965,108.006,300.625,108.007,300.284z"/>
	<path class="st24" d="M125.073,301.555c3.678,0.001,7.393-0.542,10.985,0.738c-1.351,0.051-2.703,0.101-4.054,0.153
		C129.724,301.914,127.227,303.068,125.073,301.555z"/>
</g>
</svg>
