<?xml version="1.0" encoding="utf-8"?>
<!-- Generator: Adobe Illustrator 21.0.1, SVG Export Plug-In . SVG Version: 6.00 Build 0)  -->
<svg version="1.1" xmlns="http://www.w3.org/2000/svg" xmlns:xlink="http://www.w3.org/1999/xlink" x="0px" y="0px"
	 viewBox="0 0 503.667 503.667" style="enable-background:new 0 0 503.667 503.667;" xml:space="preserve">
<style type="text/css">
	.st0{display:none;}
	.st1{fill:url(#SVGID_1_);}
	.st2{display:inline;fill:url(#SVGID_2_);}
	.st3{display:inline;fill:#FFFFFF;}
	.st4{display:inline;}
	.st5{fill:#2BBAB6;}
	.st6{display:inline;fill:#2BBAB6;}
	.st7{display:none;fill:url(#SVGID_3_);}
	.st8{fill:#FFFFFF;}
	.st9{fill:url(#SVGID_4_);}
	.st10{fill:none;stroke:#FFFFFF;stroke-width:32;stroke-miterlimit:10;}
	.st11{display:none;fill:url(#SVGID_5_);}
</style>
<g id="Layer_3">
	<g id="Layer_1" class="st0">
		<linearGradient id="SVGID_1_" gradientUnits="userSpaceOnUse" x1="-10.7112" y1="486.3454" x2="485.4032" y2="43.2023">
			<stop  offset="0" style="stop-color:#65F3B6"/>
			<stop  offset="0.2797" style="stop-color:#4FD4AF"/>
			<stop  offset="0.5392" style="stop-color:#3ED0CB"/>
			<stop  offset="0.5932" style="stop-color:#3BCFD1"/>
			<stop  offset="0.8533" style="stop-color:#04BBC9"/>
			<stop  offset="0.8985" style="stop-color:#0ABECD"/>
			<stop  offset="0.9558" style="stop-color:#19C7D9"/>
			<stop  offset="0.9946" style="stop-color:#28CFE5"/>
		</linearGradient>
		<path class="st1" d="M444.833,487.667h-386C35.177,487.667,16,468.49,16,444.833v-386C16,35.177,35.177,16,58.833,16h386
			c23.656,0,42.833,19.177,42.833,42.833v386C487.667,468.49,468.49,487.667,444.833,487.667z"/>
		<linearGradient id="SVGID_2_" gradientUnits="userSpaceOnUse" x1="55.4846" y1="427.2174" x2="426.5128" y2="95.8048">
			<stop  offset="0" style="stop-color:#65F3B6"/>
			<stop  offset="0.2797" style="stop-color:#4FD4AF"/>
			<stop  offset="0.5392" style="stop-color:#3ED0CB"/>
			<stop  offset="0.5932" style="stop-color:#3BCFD1"/>
			<stop  offset="0.8533" style="stop-color:#04BBC9"/>
			<stop  offset="0.8985" style="stop-color:#0ABECD"/>
			<stop  offset="0.9558" style="stop-color:#19C7D9"/>
			<stop  offset="0.9946" style="stop-color:#28CFE5"/>
		</linearGradient>
		<path class="st2" d="M251.834,487.667L251.834,487.667C121.586,487.667,16,382.081,16,251.834v0C16,121.586,121.586,16,251.833,16
			h0c130.247,0,235.833,105.586,235.833,235.833v0C487.667,382.081,382.081,487.667,251.834,487.667z"/>
		<path class="st3" d="M257.481,384.773l-130.792-6.149l0.062-5.855c0,0,20.932-8.161,23.097-10.367
			c5.139-5.233,5.329-15.437,5.329-15.437v-146.59c0-49.529,29.207-89.681,65.236-89.681l37.067,2.551V384.773z"/>
		<path class="st3" d="M252.283,112.87l130.792,6.083l-0.062,5.07c0,0-20.932,8.161-23.097,10.367
			c-5.139,5.233-5.329,15.437-5.329,15.437v146.59c0,49.529-29.207,89.681-65.236,89.681l-37.092-1.538L252.283,112.87z"/>
	</g>
	<g id="Layer_2" class="st0">
		<g class="st4">
			<path class="st5" d="M468.174,297.399c39.851-12.285,78.401-28.404,117.705-42.342c39.304-13.938,79.742-25.768,121.319-29.005"
				/>
		</g>
		<g class="st4">
			<path class="st5" d="M400.621,312.112c70.312-9.771,139.482-26.337,209.324-39.034c69.842-12.697,62.03-20.092,132.771-14.19"/>
		</g>
		<g class="st4">
			<path class="st5" d="M501.157,384.919c35.107-2.794,72.332-11.917,108.361-17.434c36.029-5.517,71.163-7.388,100.403,4.219"/>
		</g>
		<path class="st6" d="M367.367,357.92c0,0-11.15,9.747,0.089,14.62c11.239,4.873,64.681,1.462,64.681,1.462
			s-36.167-0.585-52.295-4.678C363.714,365.23,367.367,357.92,367.367,357.92z"/>
		<g class="st4">
			<path class="st5" d="M496.435,391.462c0,0-0.453,0.61-1.301,1.754c-0.219,0.28-0.433,0.618-0.726,0.944
				c-0.295,0.324-0.617,0.677-0.965,1.059c-0.354,0.376-0.709,0.806-1.136,1.217c-0.438,0.399-0.904,0.823-1.396,1.271
				c-2,1.741-4.633,3.704-8.057,5.217c-3.402,1.525-7.541,2.708-12.217,2.931c-4.66,0.174-9.829-0.668-14.858-2.891
				c-0.638-0.257-1.225-0.624-1.848-0.937l-0.928-0.493l-0.467-0.249l-0.495-0.326c-1.12-0.766-2.242-1.403-3.409-2.439
				c-2.395-1.877-4.358-4.089-6.166-6.608c-1.778-2.524-3.137-5.389-4.217-8.407c-0.999-3.05-1.532-6.295-1.644-9.596
				c-0.06-3.307,0.417-6.643,1.323-9.883c0.941-3.239,2.479-6.28,4.282-9.131l1.478-1.961c0.249-0.31,0.415-0.587,0.733-0.924
				l0.898-0.982l0.906-0.975c0.299-0.336,0.608-0.64,0.928-0.905l1.912-1.652c2.667-2.051,5.577-3.754,8.668-4.936
				c3.1-1.145,6.314-1.852,9.516-2.081c3.206-0.129,6.373,0.058,9.381,0.762c2.993,0.714,5.855,1.749,8.391,3.215
				c1.315,0.644,2.469,1.524,3.645,2.309l0.219,0.15l0.109,0.075l0.055,0.037c0,0,0.17,0.124,0.122,0.091l0.382,0.324l0.761,0.644
				c0.505,0.447,1.01,0.811,1.506,1.318c0.965,1.022,2.017,1.954,2.788,3.026c0.41,0.518,0.817,1.033,1.22,1.543
				c0.365,0.538,0.705,1.087,1.051,1.622c1.417,2.119,2.405,4.379,3.241,6.554c1.544,4.421,1.995,8.704,1.855,12.429
				c-0.12,3.742-0.956,6.918-1.82,9.425c-0.231,0.624-0.45,1.215-0.656,1.77c-0.221,0.549-0.487,1.039-0.703,1.508
				c-0.224,0.466-0.43,0.897-0.62,1.291c-0.192,0.393-0.426,0.719-0.603,1.027C496.831,390.814,496.435,391.462,496.435,391.462z
				 M496.435,391.462c0,0,0.389-0.652,1.117-1.876c0.174-0.31,0.404-0.637,0.591-1.032c0.185-0.396,0.387-0.829,0.605-1.297
				c0.21-0.471,0.47-0.962,0.684-1.513c0.191-0.56,0.393-1.154,0.607-1.782c0.781-2.521,1.515-5.707,1.403-9.393
				c-0.065-3.661-0.826-7.813-2.728-11.849c-1.001-1.987-2.13-4.01-3.641-5.844c-0.377-0.456-0.757-0.915-1.14-1.378
				c-0.425-0.424-0.854-0.851-1.286-1.281c-0.826-0.911-1.822-1.573-2.733-2.363c-0.459-0.383-1.07-0.731-1.603-1.102l-0.831-0.551
				l-0.417-0.277c-0.082-0.057,0.054,0.038,0.02,0.019l-0.053-0.027l-0.106-0.055l-0.211-0.11c-1.133-0.57-2.225-1.231-3.446-1.651
				c-2.35-1.039-4.929-1.567-7.508-1.95c-2.601-0.349-5.271-0.224-7.898,0.133c-2.634,0.402-5.196,1.22-7.662,2.258
				c-2.44,1.117-4.71,2.581-6.797,4.27c-0.494,0.457-0.982,0.919-1.486,1.363c-0.265,0.219-0.492,0.45-0.691,0.688l-0.637,0.699
				l-0.645,0.692c-0.214,0.206-0.449,0.582-0.672,0.865l-1.257,1.684c-1.474,2.265-2.675,4.689-3.543,7.238
				c-0.214,0.637-0.353,1.296-0.538,1.942c-0.082,0.326-0.188,0.646-0.252,0.975l-0.162,0.993c-0.094,0.663-0.285,1.317-0.308,1.988
				l-0.157,2.006c-0.051,2.678,0.167,5.359,0.77,7.956c0.655,2.572,1.541,5.095,2.841,7.377c0.269,0.605,0.691,1.108,1.02,1.673
				c0.357,0.545,0.669,1.127,1.093,1.617c0.401,0.513,0.799,1.024,1.196,1.532c0.401,0.504,0.851,0.91,1.272,1.375
				c0.77,0.916,1.919,1.785,2.92,2.652l0.192,0.162l0.096,0.081l0.048,0.041c0.031,0.026-0.104-0.073-0.023-0.016l0.389,0.267
				l0.776,0.535c0.524,0.343,1.015,0.744,1.56,1.038c1.099,0.568,2.137,1.263,3.278,1.682c0.561,0.239,1.118,0.476,1.67,0.712
				c0.568,0.192,1.14,0.361,1.706,0.538c2.268,0.713,4.567,1.001,6.786,1.184c4.456,0.25,8.59-0.604,12.009-1.917
				c3.459-1.278,6.137-3.155,8.182-4.823c0.502-0.434,0.977-0.845,1.424-1.231c0.43-0.405,0.788-0.83,1.146-1.201
				c0.352-0.377,0.677-0.726,0.975-1.046c0.296-0.322,0.514-0.658,0.736-0.935C495.976,392.067,496.435,391.462,496.435,391.462z"/>
		</g>
	</g>
	<linearGradient id="SVGID_3_" gradientUnits="userSpaceOnUse" x1="83.4328" y1="515.5801" x2="519.7515" y2="125.8482">
		<stop  offset="0" style="stop-color:#65F3B6"/>
		<stop  offset="0.2797" style="stop-color:#4FD4AF"/>
		<stop  offset="0.5392" style="stop-color:#3ED0CB"/>
		<stop  offset="0.5932" style="stop-color:#3BCFD1"/>
		<stop  offset="0.8533" style="stop-color:#04BBC9"/>
		<stop  offset="0.8985" style="stop-color:#0ABECD"/>
		<stop  offset="0.9558" style="stop-color:#19C7D9"/>
		<stop  offset="0.9946" style="stop-color:#28CFE5"/>
	</linearGradient>
	<path class="st7" d="M314.334,586.667L314.334,586.667C161.166,586.667,37,462.5,37,309.334v-0.001
		C37,156.166,161.166,32,314.333,32h0.001C467.5,32,591.667,156.166,591.667,309.333v0.001
		C591.667,462.5,467.5,586.667,314.334,586.667z"/>
	<path class="st8" d="M258.331,384.773l-130.792-6.149l0.062-5.855c0,0,20.932-8.161,23.097-10.367
		c5.139-5.233,5.329-15.437,5.329-15.437v-146.59c0-49.529,29.207-89.681,65.236-89.681l37.067,2.551V384.773z"/>
	<path class="st8" d="M253.134,112.87l130.792,6.083l-0.062,5.07c0,0-20.932,8.161-23.097,10.367
		c-5.139,5.233-5.329,15.437-5.329,15.437v146.59c0,49.529-29.207,89.681-65.236,89.681l-37.092-1.538L253.134,112.87z"/>
	<linearGradient id="SVGID_4_" gradientUnits="userSpaceOnUse" x1="-0.8911" y1="476.5005" x2="475.5956" y2="50.8894">
		<stop  offset="0" style="stop-color:#65F3B6"/>
		<stop  offset="0.2797" style="stop-color:#4FD4AF"/>
		<stop  offset="0.5392" style="stop-color:#3ED0CB"/>
		<stop  offset="0.5932" style="stop-color:#3BCFD1"/>
		<stop  offset="0.8533" style="stop-color:#04BBC9"/>
		<stop  offset="0.8985" style="stop-color:#0ABECD"/>
		<stop  offset="0.9558" style="stop-color:#19C7D9"/>
		<stop  offset="0.9946" style="stop-color:#28CFE5"/>
	</linearGradient>
	<path class="st9" d="M427.214,481.714H75.319c-29.975,0-54.5-24.525-54.5-54.5V75.319c0-29.975,24.525-54.5,54.5-54.5h351.895
		c29.975,0,54.5,24.525,54.5,54.5v351.895C481.714,457.189,457.189,481.714,427.214,481.714z"/>
	<path class="st10" d="M251.834,487.667L251.834,487.667C121.586,487.667,16,382.081,16,251.834v0C16,121.586,121.586,16,251.833,16
		h0c130.247,0,235.833,105.586,235.833,235.833v0C487.667,382.081,382.081,487.667,251.834,487.667z"/>
	<path class="st8" d="M257.481,381.372l-130.792-6.149l0.062-5.855c0,0,20.932-8.161,23.097-10.367
		c5.139-5.233,5.329-15.437,5.329-15.437v-146.59c0-49.529,29.207-89.681,65.236-89.681l37.067,2.551V381.372z"/>
	<path class="st8" d="M252.283,109.469l130.792,6.083l-0.062,5.07c0,0-20.932,8.161-23.097,10.367
		c-5.139,5.233-5.329,15.437-5.329,15.437v146.59c0,49.529-29.207,89.681-65.236,89.681l-37.092-1.538L252.283,109.469z"/>
</g>
<g id="Layer_3_copy">
	<g id="Layer_1_copy">
		<linearGradient id="SVGID_5_" gradientUnits="userSpaceOnUse" x1="158.0032" y1="587.4221" x2="746.3047" y2="61.9348">
			<stop  offset="0" style="stop-color:#65F3B6"/>
			<stop  offset="0.2797" style="stop-color:#4FD4AF"/>
			<stop  offset="0.5392" style="stop-color:#3ED0CB"/>
			<stop  offset="0.5932" style="stop-color:#3BCFD1"/>
			<stop  offset="0.8533" style="stop-color:#04BBC9"/>
			<stop  offset="0.8985" style="stop-color:#0ABECD"/>
			<stop  offset="0.9558" style="stop-color:#19C7D9"/>
			<stop  offset="0.9946" style="stop-color:#28CFE5"/>
		</linearGradient>
		<path class="st11" d="M703.833,586.667h-469c-23.656,0-42.833-19.177-42.833-42.833v-469C192,51.177,211.177,32,234.833,32h469
			c23.656,0,42.833,19.177,42.833,42.833v469C746.667,567.49,727.49,586.667,703.833,586.667z"/>
	</g>
	<g id="Layer_2_copy" class="st0">
		<g class="st4">
			<path class="st5" d="M468.174,297.399c39.851-12.285,78.401-28.404,117.705-42.342c39.304-13.938,79.742-25.768,121.319-29.005"
				/>
		</g>
		<g class="st4">
			<path class="st5" d="M400.621,312.112c70.312-9.771,139.482-26.337,209.324-39.034c69.842-12.697,62.03-20.092,132.771-14.19"/>
		</g>
		<g class="st4">
			<path class="st5" d="M501.157,384.919c35.107-2.794,72.332-11.917,108.361-17.434c36.029-5.517,71.163-7.388,100.403,4.219"/>
		</g>
		<path class="st6" d="M367.367,357.92c0,0-11.15,9.747,0.089,14.62c11.239,4.873,64.681,1.462,64.681,1.462
			s-36.167-0.585-52.295-4.678C363.714,365.23,367.367,357.92,367.367,357.92z"/>
		<g class="st4">
			<path class="st5" d="M496.435,391.462c0,0-0.453,0.61-1.301,1.754c-0.219,0.28-0.433,0.618-0.726,0.944
				c-0.295,0.324-0.617,0.677-0.965,1.059c-0.354,0.376-0.709,0.806-1.136,1.217c-0.438,0.399-0.904,0.823-1.396,1.271
				c-2,1.741-4.633,3.704-8.057,5.217c-3.402,1.525-7.541,2.708-12.217,2.931c-4.66,0.174-9.829-0.668-14.858-2.891
				c-0.638-0.257-1.225-0.624-1.848-0.937l-0.928-0.493l-0.467-0.249l-0.495-0.326c-1.12-0.766-2.242-1.403-3.409-2.439
				c-2.395-1.877-4.358-4.089-6.166-6.608c-1.778-2.524-3.137-5.389-4.217-8.407c-0.999-3.05-1.532-6.295-1.644-9.596
				c-0.06-3.307,0.417-6.643,1.323-9.883c0.941-3.239,2.479-6.28,4.282-9.131l1.478-1.961c0.249-0.31,0.415-0.587,0.733-0.924
				l0.898-0.982l0.906-0.975c0.299-0.336,0.608-0.64,0.928-0.905l1.912-1.652c2.667-2.051,5.577-3.754,8.668-4.936
				c3.1-1.145,6.314-1.852,9.516-2.081c3.206-0.129,6.373,0.058,9.381,0.762c2.993,0.714,5.855,1.749,8.391,3.215
				c1.315,0.644,2.469,1.524,3.645,2.309l0.219,0.15l0.109,0.075l0.055,0.037c0,0,0.17,0.124,0.122,0.091l0.382,0.324l0.761,0.644
				c0.505,0.447,1.01,0.811,1.506,1.318c0.965,1.022,2.017,1.954,2.788,3.026c0.41,0.518,0.817,1.033,1.22,1.543
				c0.365,0.538,0.705,1.087,1.051,1.622c1.417,2.119,2.405,4.379,3.241,6.554c1.544,4.421,1.995,8.704,1.855,12.429
				c-0.12,3.742-0.956,6.918-1.82,9.425c-0.231,0.624-0.45,1.215-0.656,1.77c-0.221,0.549-0.487,1.039-0.703,1.508
				c-0.224,0.466-0.43,0.897-0.62,1.291c-0.192,0.393-0.426,0.719-0.603,1.027C496.831,390.814,496.435,391.462,496.435,391.462z
				 M496.435,391.462c0,0,0.389-0.652,1.117-1.876c0.174-0.31,0.404-0.637,0.591-1.032c0.185-0.396,0.387-0.829,0.605-1.297
				c0.21-0.471,0.47-0.962,0.684-1.513c0.191-0.56,0.393-1.154,0.607-1.782c0.781-2.521,1.515-5.707,1.403-9.393
				c-0.065-3.661-0.826-7.813-2.728-11.849c-1.001-1.987-2.13-4.01-3.641-5.844c-0.377-0.456-0.757-0.915-1.14-1.378
				c-0.425-0.424-0.854-0.851-1.286-1.281c-0.826-0.911-1.822-1.573-2.733-2.363c-0.459-0.383-1.07-0.731-1.603-1.102l-0.831-0.551
				l-0.417-0.277c-0.082-0.057,0.054,0.038,0.02,0.019l-0.053-0.027l-0.106-0.055l-0.211-0.11c-1.133-0.57-2.225-1.231-3.446-1.651
				c-2.35-1.039-4.929-1.567-7.508-1.95c-2.601-0.349-5.271-0.224-7.898,0.133c-2.634,0.402-5.196,1.22-7.662,2.258
				c-2.44,1.117-4.71,2.581-6.797,4.27c-0.494,0.457-0.982,0.919-1.486,1.363c-0.265,0.219-0.492,0.45-0.691,0.688l-0.637,0.699
				l-0.645,0.692c-0.214,0.206-0.449,0.582-0.672,0.865l-1.257,1.684c-1.474,2.265-2.675,4.689-3.543,7.238
				c-0.214,0.637-0.353,1.296-0.538,1.942c-0.082,0.326-0.188,0.646-0.252,0.975l-0.162,0.993c-0.094,0.663-0.285,1.317-0.308,1.988
				l-0.157,2.006c-0.051,2.678,0.167,5.359,0.77,7.956c0.655,2.572,1.541,5.095,2.841,7.377c0.269,0.605,0.691,1.108,1.02,1.673
				c0.357,0.545,0.669,1.127,1.093,1.617c0.401,0.513,0.799,1.024,1.196,1.532c0.401,0.504,0.851,0.91,1.272,1.375
				c0.77,0.916,1.919,1.785,2.92,2.652l0.192,0.162l0.096,0.081l0.048,0.041c0.031,0.026-0.104-0.073-0.023-0.016l0.389,0.267
				l0.776,0.535c0.524,0.343,1.015,0.744,1.56,1.038c1.099,0.568,2.137,1.263,3.278,1.682c0.561,0.239,1.118,0.476,1.67,0.712
				c0.568,0.192,1.14,0.361,1.706,0.538c2.268,0.713,4.567,1.001,6.786,1.184c4.456,0.25,8.59-0.604,12.009-1.917
				c3.459-1.278,6.137-3.155,8.182-4.823c0.502-0.434,0.977-0.845,1.424-1.231c0.43-0.405,0.788-0.83,1.146-1.201
				c0.352-0.377,0.677-0.726,0.975-1.046c0.296-0.322,0.514-0.658,0.736-0.935C495.976,392.067,496.435,391.462,496.435,391.462z"/>
		</g>
	</g>
</g>
</svg>
